<svg width="70" height="70" viewBox="0 0 70 70" fill="none" xmlns="http://www.w3.org/2000/svg">
<path d="M57.3065 52.0117C63.772 46.0432 66.8502 36.8542 65.7971 28.3236C65.1933 23.4285 63.2639 18.9915 60.5172 14.8693C53.7939 4.75714 40.9292 1.916 35.6419 2.00188C30.5461 2.08775 25.2514 3.63357 20.6269 5.64455C15.3617 7.92749 11.4146 11.8994 8.74154 16.6441C5.92116 20.7806 4.34529 25.783 4.0581 30.7282C3.77827 35.4945 4.50729 40.4682 6.28936 44.9268C7.30558 47.4673 8.91828 51.1386 11.4956 52.8991C9.05083 54.8314 7.37185 57.6726 7.20248 60.7856C7.05521 63.455 8.72681 65.1082 11.2821 65.7737C14.2277 66.5395 17.5414 66.8258 20.5753 66.9617C24.0364 67.1192 27.5122 66.7542 30.9585 66.5109C34.5594 66.2604 38.1677 66.0099 41.7687 65.7666C45.3696 65.5233 48.9779 65.2799 52.5789 65.0366C54.2652 64.9221 55.9589 64.8076 57.6453 64.6931C58.9045 64.6072 60.554 64.7289 61.5702 63.8415C63.367 62.267 61.9605 58.4812 61.1431 56.7422C60.2889 54.903 58.9634 53.2355 57.3065 52.0117V52.0117Z" fill="white"/>
<path opacity="0.5" d="M59.4593 17.3453C54.9746 9.59474 47.6623 4.84281 38.5089 4.20587C24.6501 3.23974 11.1226 11.2193 6.45384 24.0008C3.86911 31.0858 4.74541 38.9652 8.18436 45.6064C9.9296 48.9771 12.2861 51.6465 15.0843 53.8293C16.3215 55.3679 17.8311 56.6275 19.5911 57.6795C20.8135 58.4095 22.1758 58.8889 23.5381 59.347C26.5647 60.356 29.3998 59.9624 32.4411 59.4257C33.3616 59.2611 34.2894 58.8961 35.1731 58.4953C40.5193 59.2611 46.3589 57.8298 50.814 55.0817C56.742 51.4247 61.3739 45.3917 62.8835 38.6789C64.533 31.3649 63.2222 23.8434 59.4593 17.3453V17.3453Z" fill="#D8E4E9"/>
<ellipse cx="41.7602" cy="10.357" rx="0.955477" ry="0.92857" fill="white"/>
<ellipse cx="36.0273" cy="14.0711" rx="0.955477" ry="0.92857" fill="white"/>
<ellipse cx="44.1486" cy="14.5356" rx="0.477739" ry="0.464285" fill="white"/>
<ellipse cx="48.926" cy="15.4643" rx="0.477739" ry="0.464285" fill="white"/>
<path d="M35.0716 8.96413C35.0716 8.86999 34.9931 8.79366 34.8962 8.79366H34.6203L34.883 8.53832C34.9515 8.47175 34.9515 8.36381 34.883 8.29725C34.8145 8.23069 34.7034 8.23068 34.6349 8.29725L34.1241 8.79368H33.8645L34.1272 8.53834C34.1957 8.47176 34.1957 8.36383 34.1272 8.29726C34.0587 8.23069 33.9477 8.23069 33.8792 8.29726L33.3684 8.79369H32.1509L33.0118 7.95705H33.7342C33.8311 7.95705 33.9096 7.88074 33.9096 7.78659C33.9096 7.69244 33.8311 7.61613 33.7342 7.61613H33.3626L33.5462 7.43771H34.2686C34.3655 7.43771 34.444 7.3614 34.444 7.26725C34.444 7.1731 34.3655 7.09679 34.2686 7.09679H33.897L34.0922 6.90712C34.1607 6.84055 34.1607 6.73261 34.0922 6.66605C34.0237 6.59947 33.9126 6.59947 33.8441 6.66605L33.649 6.85572V6.49456C33.649 6.40041 33.5704 6.3241 33.4736 6.3241C33.3767 6.3241 33.2982 6.40041 33.2982 6.49456V7.1966L33.1146 7.37502V7.01393C33.1146 6.91978 33.036 6.84347 32.9392 6.84347C32.8423 6.84347 32.7638 6.91978 32.7638 7.01393V7.71597L31.9029 8.55261V7.36944L32.4137 6.87301C32.4822 6.80643 32.4822 6.6985 32.4137 6.63194C32.3452 6.56536 32.2341 6.56536 32.1656 6.63194L31.9029 6.88728V6.63494L32.4137 6.13852C32.4822 6.07194 32.4822 5.96401 32.4137 5.89745C32.3452 5.83087 32.2341 5.83087 32.1656 5.89745L31.9029 6.15279V5.88457C31.9029 5.79042 31.8243 5.71411 31.7275 5.71411C31.6306 5.71411 31.5521 5.79042 31.5521 5.88457V6.15279L31.2893 5.89745C31.2208 5.83087 31.1098 5.83087 31.0413 5.89745C30.9728 5.96402 30.9728 6.07196 31.0413 6.13852L31.5521 6.63494V6.88728L31.2893 6.63194C31.2208 6.56536 31.1098 6.56536 31.0413 6.63194C30.9728 6.69851 30.9728 6.80645 31.0413 6.87301L31.5521 7.36944V8.55261L30.6912 7.71597V7.01391C30.6912 6.91977 30.6127 6.84345 30.5158 6.84345C30.4189 6.84345 30.3404 6.91977 30.3404 7.01391V7.37502L30.1568 7.1966V6.49455C30.1568 6.4004 30.0783 6.32409 29.9814 6.32409C29.8846 6.32409 29.806 6.4004 29.806 6.49455V6.85565L29.6108 6.66602C29.5423 6.59945 29.4313 6.59945 29.3628 6.66602C29.2943 6.7326 29.2943 6.84053 29.3628 6.9071L29.558 7.09676H29.1864C29.0895 7.09676 29.011 7.17308 29.011 7.26722C29.011 7.36137 29.0895 7.43769 29.1864 7.43769H29.9087L30.0923 7.61611H29.7208C29.6239 7.61611 29.5454 7.69242 29.5454 7.78657C29.5454 7.88072 29.6239 7.95703 29.7208 7.95703H30.4432L31.304 8.79366H30.0866L29.5758 8.29724C29.5073 8.23066 29.3962 8.23066 29.3277 8.29724C29.2592 8.36381 29.2592 8.47175 29.3277 8.53831L29.5904 8.79365H29.3308L28.82 8.29724C28.7515 8.23066 28.6404 8.23066 28.5719 8.29724C28.5034 8.36381 28.5034 8.47175 28.5719 8.53831L28.8347 8.79365H28.5587C28.4618 8.79365 28.3833 8.86998 28.3833 8.96411C28.3833 9.05826 28.4618 9.13457 28.5587 9.13457H28.8347L28.572 9.38993C28.5035 9.4565 28.5035 9.56444 28.572 9.631C28.6062 9.66429 28.6511 9.68093 28.696 9.68093C28.7409 9.68093 28.7858 9.66429 28.82 9.631L29.3308 9.13457H29.5905L29.3277 9.38993C29.2592 9.4565 29.2592 9.56444 29.3277 9.631C29.362 9.66429 29.4069 9.68093 29.4517 9.68093C29.4966 9.68093 29.5415 9.66429 29.5758 9.631L30.0866 9.13457H31.304L30.4431 9.97121H29.7208C29.6239 9.97121 29.5454 10.0475 29.5454 10.1417C29.5454 10.2358 29.6239 10.3121 29.7208 10.3121H30.0923L29.9087 10.4906H29.1863C29.0895 10.4906 29.0109 10.5669 29.0109 10.661C29.0109 10.7552 29.0895 10.8315 29.1863 10.8315H29.5579L29.3628 11.0211C29.2942 11.0877 29.2942 11.1956 29.3628 11.2622C29.397 11.2955 29.4419 11.3121 29.4868 11.3121C29.5317 11.3121 29.5766 11.2955 29.6108 11.2622L29.806 11.0725V11.4337C29.806 11.5278 29.8845 11.6041 29.9814 11.6041C30.0782 11.6041 30.1568 11.5278 30.1568 11.4337V10.7316L30.3403 10.5532V10.9143C30.3403 11.0084 30.4189 11.0848 30.5157 11.0848C30.6126 11.0848 30.6911 11.0084 30.6911 10.9143V10.2123L31.552 9.37562V10.5588L31.0412 11.0552C30.9727 11.1218 30.9727 11.2297 31.0412 11.2963C31.1097 11.3629 31.2208 11.3629 31.2893 11.2963L31.552 11.0409V11.2933L31.0412 11.7897C30.9727 11.8563 30.9727 11.9642 31.0412 12.0308C31.0754 12.0641 31.1203 12.0807 31.1652 12.0807C31.2101 12.0807 31.255 12.0641 31.2892 12.0308L31.552 11.7754V12.0436C31.552 12.1378 31.6305 12.2141 31.7274 12.2141C31.8243 12.2141 31.9028 12.1378 31.9028 12.0436V11.7754L32.1655 12.0308C32.234 12.0974 32.3451 12.0974 32.4136 12.0308C32.4821 11.9642 32.4821 11.8563 32.4136 11.7897L31.9028 11.2933V11.0409L32.1655 11.2963C32.1998 11.3296 32.2447 11.3462 32.2896 11.3462C32.3344 11.3462 32.3793 11.3296 32.4136 11.2963C32.4821 11.2297 32.4821 11.1218 32.4136 11.0552L31.9028 10.5588V9.37571L32.7636 10.2123V10.9144C32.7636 11.0085 32.8422 11.0848 32.939 11.0848C33.0359 11.0848 33.1144 11.0085 33.1144 10.9144V10.5533L33.298 10.7317V11.4337C33.298 11.5279 33.3766 11.6042 33.4734 11.6042C33.5703 11.6042 33.6488 11.5279 33.6488 11.4337V11.0726L33.844 11.2623C33.8782 11.2956 33.9231 11.3122 33.968 11.3122C34.0129 11.3122 34.0578 11.2956 34.092 11.2623C34.1605 11.1957 34.1605 11.0878 34.092 11.0212L33.8969 10.8316H34.2684C34.3653 10.8316 34.4438 10.7553 34.4438 10.6611C34.4438 10.567 34.3653 10.4906 34.2684 10.4906H33.5461L33.3625 10.3122H33.734C33.8309 10.3122 33.9094 10.2359 33.9094 10.1418C33.9094 10.0476 33.8309 9.9713 33.734 9.9713H33.0117L32.1508 9.13466H33.3682L33.879 9.63109C33.9133 9.66438 33.9582 9.68102 34.0031 9.68102C34.0479 9.68102 34.0928 9.66438 34.1271 9.63109C34.1956 9.56452 34.1956 9.45659 34.1271 9.39002L33.8643 9.13466H34.124L34.6348 9.63109C34.669 9.66438 34.7139 9.68102 34.7588 9.68102C34.8037 9.68102 34.8486 9.66438 34.8828 9.63109C34.9513 9.56452 34.9513 9.45659 34.8828 9.39002L34.6201 9.13466H34.8961C34.9931 9.13459 35.0716 9.05827 35.0716 8.96413Z" fill="#A8D4EB"/>
<path d="M57.048 15.9284C57.048 15.8746 57.0031 15.831 56.9478 15.831H56.79L56.9402 15.6851C56.9793 15.6471 56.9793 15.5854 56.9402 15.5474C56.901 15.5093 56.8376 15.5093 56.7984 15.5474L56.5065 15.831H56.3582L56.5083 15.6851C56.5475 15.6471 56.5475 15.5854 56.5083 15.5474C56.4692 15.5093 56.4057 15.5093 56.3666 15.5474L56.0747 15.831H55.379L55.8709 15.353H56.2837C56.3391 15.353 56.3839 15.3094 56.3839 15.2556C56.3839 15.2018 56.3391 15.1582 56.2837 15.1582H56.0714L56.1763 15.0562H56.5891C56.6445 15.0562 56.6893 15.0126 56.6893 14.9588C56.6893 14.905 56.6445 14.8614 56.5891 14.8614H56.3768L56.4883 14.753C56.5274 14.715 56.5274 14.6533 56.4883 14.6153C56.4491 14.5772 56.3857 14.5772 56.3465 14.6153L56.235 14.7236V14.5173C56.235 14.4635 56.1902 14.4199 56.1348 14.4199C56.0794 14.4199 56.0346 14.4635 56.0346 14.5173V14.9184L55.9297 15.0204V14.814C55.9297 14.7602 55.8848 14.7166 55.8294 14.7166C55.7741 14.7166 55.7292 14.7602 55.7292 14.814V15.2152L55.2373 15.6933V15.0172L55.5292 14.7335C55.5683 14.6955 55.5683 14.6338 55.5292 14.5958C55.49 14.5577 55.4266 14.5577 55.3874 14.5958L55.2373 14.7417V14.5975L55.5292 14.3138C55.5683 14.2758 55.5683 14.2141 55.5292 14.1761C55.49 14.138 55.4266 14.138 55.3874 14.1761L55.2373 14.322V14.1687C55.2373 14.1149 55.1924 14.0713 55.137 14.0713C55.0817 14.0713 55.0368 14.1149 55.0368 14.1687V14.322L54.8867 14.1761C54.8475 14.138 54.7841 14.138 54.7449 14.1761C54.7058 14.2141 54.7058 14.2758 54.7449 14.3138L55.0368 14.5975V14.7417L54.8867 14.5958C54.8475 14.5577 54.7841 14.5577 54.7449 14.5958C54.7058 14.6338 54.7058 14.6955 54.7449 14.7335L55.0368 15.0172V15.6933L54.5449 15.2152V14.814C54.5449 14.7602 54.5 14.7166 54.4447 14.7166C54.3893 14.7166 54.3444 14.7602 54.3444 14.814V15.0204L54.2395 14.9184V14.5173C54.2395 14.4635 54.1947 14.4198 54.1393 14.4198C54.0839 14.4198 54.0391 14.4635 54.0391 14.5173V14.7236L53.9275 14.6152C53.8884 14.5772 53.8249 14.5772 53.7858 14.6152C53.7466 14.6533 53.7466 14.715 53.7858 14.753L53.8973 14.8614H53.685C53.6296 14.8614 53.5847 14.905 53.5847 14.9588C53.5847 15.0126 53.6296 15.0562 53.685 15.0562H54.0978L54.2027 15.1581H53.9903C53.935 15.1581 53.8901 15.2017 53.8901 15.2555C53.8901 15.3093 53.935 15.353 53.9903 15.353H54.4031L54.8951 15.831H54.1994L53.9075 15.5474C53.8683 15.5093 53.8049 15.5093 53.7657 15.5474C53.7266 15.5854 53.7266 15.6471 53.7657 15.6851L53.9159 15.831H53.7675L53.4756 15.5474C53.4365 15.5093 53.373 15.5093 53.3339 15.5474C53.2947 15.5854 53.2947 15.6471 53.3339 15.6851L53.484 15.831H53.3263C53.2709 15.831 53.2261 15.8746 53.2261 15.9284C53.2261 15.9822 53.2709 16.0258 53.3263 16.0258H53.484L53.3339 16.1718C53.2947 16.2098 53.2947 16.2715 53.3339 16.3095C53.3535 16.3285 53.3791 16.338 53.4047 16.338C53.4304 16.338 53.4561 16.3285 53.4756 16.3095L53.7675 16.0258H53.9159L53.7657 16.1718C53.7266 16.2098 53.7266 16.2715 53.7657 16.3095C53.7853 16.3285 53.811 16.338 53.8366 16.338C53.8623 16.338 53.8879 16.3285 53.9075 16.3095L54.1994 16.0258H54.8951L54.4031 16.5039H53.9903C53.935 16.5039 53.8901 16.5475 53.8901 16.6013C53.8901 16.6551 53.935 16.6987 53.9903 16.6987H54.2027L54.0978 16.8007H53.685C53.6296 16.8007 53.5847 16.8443 53.5847 16.8981C53.5847 16.9519 53.6296 16.9955 53.685 16.9955H53.8973L53.7858 17.1039C53.7466 17.1419 53.7466 17.2036 53.7858 17.2416C53.8053 17.2607 53.831 17.2702 53.8566 17.2702C53.8823 17.2702 53.9079 17.2607 53.9275 17.2416L54.039 17.1333V17.3396C54.039 17.3934 54.0839 17.437 54.1392 17.437C54.1946 17.437 54.2395 17.3934 54.2395 17.3396V16.9384L54.3444 16.8365V17.0428C54.3444 17.0966 54.3893 17.1402 54.4446 17.1402C54.5 17.1402 54.5448 17.0966 54.5448 17.0428V16.6417L55.0368 16.1636V16.8397L54.7449 17.1234C54.7057 17.1614 54.7057 17.2231 54.7449 17.2611C54.784 17.2991 54.8475 17.2991 54.8866 17.2611L55.0368 17.1152V17.2594L54.7449 17.5431C54.7057 17.5811 54.7057 17.6428 54.7449 17.6808C54.7644 17.6998 54.7901 17.7093 54.8157 17.7093C54.8414 17.7093 54.867 17.6998 54.8866 17.6808L55.0367 17.5349V17.6882C55.0367 17.742 55.0816 17.7856 55.137 17.7856C55.1923 17.7856 55.2372 17.742 55.2372 17.6882V17.5349L55.3873 17.6808C55.4265 17.7189 55.49 17.7189 55.5291 17.6808C55.5682 17.6428 55.5682 17.5811 55.5291 17.5431L55.2372 17.2594V17.1152L55.3873 17.2611C55.4069 17.2801 55.4326 17.2896 55.4582 17.2896C55.4839 17.2896 55.5095 17.2801 55.5291 17.2611C55.5682 17.2231 55.5682 17.1614 55.5291 17.1234L55.2372 16.8397V16.1636L55.7291 16.6417V17.0429C55.7291 17.0967 55.774 17.1403 55.8294 17.1403C55.8847 17.1403 55.9296 17.0967 55.9296 17.0429V16.8365L56.0345 16.9385V17.3396C56.0345 17.3934 56.0794 17.4371 56.1347 17.4371C56.1901 17.4371 56.2349 17.3934 56.2349 17.3396V17.1333L56.3465 17.2417C56.366 17.2607 56.3917 17.2702 56.4173 17.2702C56.443 17.2702 56.4686 17.2607 56.4882 17.2417C56.5274 17.2036 56.5274 17.142 56.4882 17.1039L56.3767 16.9955H56.589C56.6444 16.9955 56.6892 16.9519 56.6892 16.8981C56.6892 16.8443 56.6444 16.8007 56.589 16.8007H56.1762L56.0713 16.6988H56.2836C56.339 16.6988 56.3839 16.6552 56.3839 16.6014C56.3839 16.5476 56.339 16.504 56.2836 16.504H55.8709L55.3789 16.0259H56.0746L56.3665 16.3096C56.3861 16.3286 56.4117 16.3381 56.4374 16.3381C56.463 16.3381 56.4887 16.3286 56.5082 16.3096C56.5474 16.2715 56.5474 16.2098 56.5082 16.1718L56.3581 16.0259H56.5065L56.7984 16.3096C56.8179 16.3286 56.8436 16.3381 56.8692 16.3381C56.8949 16.3381 56.9205 16.3286 56.9401 16.3096C56.9792 16.2715 56.9792 16.2098 56.9401 16.1718L56.7899 16.0259H56.9477C57.0031 16.0258 57.048 15.9822 57.048 15.9284Z" fill="#A8D4EB"/>
<path d="M53.3166 40.826C53.2503 40.7973 53.1841 40.7759 53.1251 40.7472C52.5287 40.2892 51.8291 40.0244 51.1074 39.8312C49.885 39.3732 48.5448 39.1585 47.2561 39.0225C45.1868 38.8078 43.0955 38.7649 41.0189 38.7362C36.8877 38.679 32.7345 38.8722 28.6622 39.5879C26.3058 40.003 23.9199 40.5683 21.7033 41.4557C21.6886 41.4629 21.696 41.4772 21.7107 41.4772C25.6651 40.3035 29.6195 39.4591 33.7507 39.137C37.764 38.8221 41.8142 38.8579 45.8275 39.1084C46.181 39.1299 46.5271 39.1585 46.8732 39.1943C46.7038 39.2229 46.5418 39.2587 46.3872 39.3159C46.3356 39.3374 46.3209 39.4161 46.3872 39.4304H46.3945C46.2767 39.4447 46.1515 39.4591 46.0337 39.4805C45.7539 39.4948 45.474 39.5163 45.2016 39.5521C45.1353 39.5592 45.1279 39.6594 45.2016 39.6594H45.2163C45.0101 39.7167 44.8113 39.7811 44.6051 39.8598C44.5683 39.8741 44.583 39.9314 44.6198 39.9242C45.0101 39.8384 45.4004 39.7525 45.7907 39.6881C46.0116 39.6952 46.2325 39.7024 46.4608 39.7095C46.4534 39.7453 46.4755 39.7883 46.5271 39.7811C48.7878 39.6809 50.9749 40.3178 53.1399 40.8546C53.1472 40.8546 53.1472 40.8546 53.1546 40.8617H53.1767C53.2209 40.8689 53.2577 40.8832 53.3019 40.8904C53.3313 40.8975 53.3608 40.8403 53.3166 40.826V40.826ZM48.1545 39.5378C48.4417 39.5736 48.7215 39.6165 49.0014 39.6666C48.6111 39.6022 48.2208 39.5521 47.8305 39.5163C47.941 39.5235 48.044 39.5306 48.1545 39.5378V39.5378Z" fill="#B9D6D3"/>
<path opacity="0.5" d="M58.3909 44.2179C58.7517 43.1874 58.1552 41.7632 57.0654 41.5056C56.7929 41.3768 56.4836 41.3052 56.1596 41.3338C56.1522 41.3338 56.1522 41.341 56.1596 41.341C57.0875 41.5199 57.7502 42.0495 58.03 42.851C58.0374 42.8939 58.0521 42.9369 58.0595 42.9798C58.0742 43.0729 58.0816 43.1587 58.0889 43.2446C57.8901 42.7794 57.5072 42.4145 56.9402 42.2642C56.1228 42.0495 55.3128 41.8348 54.4954 41.6272C54.2303 41.5557 53.9799 41.5414 53.7516 41.5771C43.5084 39.3014 32.5583 39.6019 22.4108 42.0853C19.6714 42.758 16.9762 43.6024 14.3473 44.6044C14.2148 44.5829 14.0749 44.5757 13.9349 44.5829C14.4431 44.1177 15.1132 43.8028 15.7538 43.4951C16.5786 43.1015 17.4254 42.7866 18.287 42.5003C18.6847 42.3787 19.0897 42.257 19.4873 42.1354C19.5462 42.121 19.5168 42.0423 19.4652 42.0495C17.6832 42.3286 15.8937 42.9369 14.2663 43.7026C13.4784 44.0676 12.5726 44.7046 12.2044 45.5132C11.9393 45.9212 11.8362 46.4221 11.9909 46.8945C12.6978 49.0557 13.957 51.0381 15.6802 52.5767C16.0263 52.8845 16.3945 53.185 16.7848 53.4713C16.8658 53.5643 16.9394 53.6574 17.0204 53.7504C16.8142 54.509 17.1898 55.2604 17.8599 55.7328C19.6788 57.0066 22.1015 56.9279 24.2444 56.9852C26.6524 57.0496 29.0678 57.0567 31.4758 57.0066C33.847 56.9565 36.2108 56.8563 38.5746 56.6989C40.8132 56.5486 43.0887 56.4126 45.3052 56.0333C46.5129 55.8258 47.7058 55.4823 48.8031 54.9599C49.4216 55.1459 50.1065 54.9599 50.644 54.5376C53.597 52.1974 56.6309 49.3706 57.8386 45.778C58.1258 45.2985 58.3246 44.7618 58.3909 44.2179V44.2179ZM13.4563 44.6688C13.4268 44.6759 13.3974 44.6902 13.3679 44.7046C13.4342 44.6115 13.5078 44.5185 13.5888 44.4398C13.7656 44.3181 13.9497 44.2036 14.1411 44.0962C13.8834 44.2537 13.6404 44.4469 13.4563 44.6688Z" fill="#B9D6D3"/>
<path d="M59.8994 62.7824C59.8994 62.7824 8.75708 68.114 8.63189 62.4031C8.55825 59.0968 10.5244 56.6206 12.1887 55.1178C13.3963 54.03 14.442 53.4646 14.442 53.4646C33.2568 55.4327 49.509 53.393 53.6033 52.7919C54.2513 52.6989 54.5974 52.6416 54.5974 52.6416C59.4797 56.0481 59.8994 62.7824 59.8994 62.7824V62.7824Z" fill="#FFD801"/>
<path d="M54.6048 52.6484C54.6048 52.6484 54.2587 52.7057 53.6106 52.7987C54.1703 53.1852 54.6931 53.6074 55.1792 54.0726C55.378 54.3231 55.5621 54.5807 55.7462 54.8312C56.4458 55.7687 57.1601 56.699 57.8302 57.658C57.867 57.7153 57.9038 57.7654 57.9406 57.8226C58.029 58.0087 58.11 58.2019 58.1836 58.3951C58.4708 59.1466 59.082 60.5349 58.3236 61.1576C57.7123 61.6657 56.7477 61.8947 55.9745 62.045C54.9877 62.2382 53.9641 62.2525 52.9626 62.2239C51.0627 62.1666 49.1702 61.9591 47.2703 61.9448C45.2526 61.9305 43.2349 62.0235 41.2246 62.1738C33.3083 62.7678 25.2596 64.2492 17.3434 62.8537C15.5981 62.5459 13.4921 62.2096 12.1224 61.0144C10.3403 59.4686 11.2755 57.1785 12.1518 55.418C12.2034 55.3178 12.2108 55.2176 12.1887 55.1246C10.5244 56.6203 8.55825 59.1036 8.63189 62.41C8.75708 68.1137 59.8994 62.7892 59.8994 62.7892C59.8994 62.7892 59.4797 56.0478 54.6048 52.6484Z" fill="#FFD801"/>
<path d="M25.9661 11.2623C25.7451 10.8472 25.5169 10.4393 25.2959 10.0242C25.2739 9.98844 25.2518 9.95265 25.2223 9.92403C25.0824 9.63777 24.8247 9.39444 24.4933 9.24416C23.6243 8.84339 22.6891 9.30141 21.9895 9.81668C20.3253 11.0404 18.7862 12.4932 17.3429 13.9532C14.4563 16.873 11.9599 20.2151 10.3472 23.9651C9.90537 24.9885 9.53717 26.0334 9.24998 27.1069C9.00697 28.0157 8.66087 29.1035 8.73451 30.0697C8.68296 30.3488 8.64614 30.6279 8.62405 30.8998C8.60932 31.1074 8.70505 31.2433 8.85233 31.3078C8.94806 31.501 9.30153 31.5081 9.37517 31.2648C9.46353 31.2076 9.54454 31.1288 9.58872 31.0215C10.1926 29.4757 10.5534 27.8655 11.2309 26.334C11.9157 24.8025 12.7478 23.3354 13.6978 21.947C15.5829 19.2061 17.9689 16.7657 20.723 14.8406C22.2988 13.7385 23.9852 12.801 25.7599 12.0352C26.0544 11.9135 26.106 11.5128 25.9661 11.2623V11.2623ZM21.452 11.5128C21.4446 11.5199 21.4446 11.5271 21.4373 11.5342C21.4225 11.5557 21.4152 11.5772 21.4078 11.5987C21.3121 11.6559 21.2237 11.7203 21.1353 11.7776C21.2458 11.6845 21.3489 11.5987 21.452 11.5128V11.5128ZM20.885 13.3449C21.1722 13.1373 21.4667 12.9298 21.7613 12.7294C21.776 12.7437 21.7907 12.758 21.8054 12.7723C21.4962 12.9512 21.1869 13.1445 20.885 13.3449ZM23.9925 10.0743C23.9704 10.0171 23.941 9.96697 23.8894 9.93118C23.9557 9.93118 24.022 9.93834 24.0809 9.95265C24.1104 9.95981 24.1324 9.96697 24.1619 9.98128C24.1104 10.0171 24.0514 10.0457 23.9925 10.0743V10.0743Z" fill="white"/>
<path d="M9.65504 33.5621C9.27211 33.3831 8.84501 33.6265 8.70509 33.9914C8.62409 34.2061 8.59463 34.5139 8.65354 34.7787C8.65354 35.0578 8.71982 35.344 8.81555 35.5516C8.98492 35.9022 9.41939 36.1026 9.73604 35.7877C10.0306 35.5015 10.0453 34.9218 10.0453 34.5425C10.0453 34.199 10.0306 33.7338 9.65504 33.5621V33.5621Z" fill="white"/>
<path d="M56.4095 24.9956C56.1738 24.3945 55.1723 24.645 55.4006 25.2676C55.408 25.2891 55.4153 25.3105 55.4227 25.3248C55.4006 25.3964 55.3933 25.4823 55.408 25.5682C55.6068 26.4914 55.9897 27.3788 56.1886 28.3163C56.4021 29.3182 56.5347 30.3273 56.5862 31.3506C56.6967 33.2758 56.5715 35.2366 56.2401 37.1403C55.5921 40.8831 53.3976 43.8746 51.4388 47.0664C51.0854 47.6461 50.4668 48.5406 51.2768 49.0344C51.3431 49.0774 51.4094 49.106 51.4757 49.1275C51.5051 49.2205 51.5419 49.3135 51.5861 49.4066C51.7187 49.6714 52.0132 49.7143 52.2489 49.6141C52.3372 49.6356 52.4403 49.6213 52.5287 49.5426C59.5465 43.4094 59.576 32.9537 56.4095 24.9956V24.9956ZM57.2342 38.4785C57.1901 38.7577 57.1459 39.0296 57.0943 39.3016C57.0722 39.2658 57.0501 39.2371 57.0207 39.2085C57.1164 38.8578 57.2048 38.5 57.2858 38.1494C57.2637 38.2567 57.249 38.3712 57.2342 38.4785V38.4785Z" fill="white"/>
<path d="M54.5097 20.3726C54.2741 20.3726 54.1047 20.6016 54.1636 20.8163C54.2078 20.9809 54.2815 21.1383 54.3772 21.2743C54.3993 21.353 54.4287 21.4246 54.4656 21.489C54.6055 21.718 54.8779 21.8754 55.1504 21.8611C55.386 21.8468 55.526 21.6965 55.548 21.4747C55.6143 20.9021 55.0915 20.3797 54.5097 20.3726V20.3726Z" fill="white"/>
<path d="M49.5083 49.8502C49.3168 49.7572 49.118 49.8717 49.0738 50.0363C48.7056 50.1079 48.3816 50.3011 48.2638 50.6875C48.1091 51.2028 48.551 51.6537 49.0517 51.7109C49.5819 51.7753 50.009 51.4103 50.3109 51.031C50.7675 50.4371 49.9648 50.0649 49.5083 49.8502V49.8502Z" fill="white"/>
<path d="M17.8437 55.7045C17.748 55.5972 17.6228 55.5113 17.4902 55.4326C17.2251 54.903 16.6065 54.5667 16.0027 54.5667C14.309 54.5667 13.8451 56.8925 15.4504 57.4579C16.3341 57.7728 17.2398 57.3362 17.7553 56.6206C17.9615 56.3343 18.1014 56.0123 17.8437 55.7045ZM16.2678 55.4183C16.1868 55.4111 16.1058 55.4111 16.0248 55.4183C15.9806 55.404 15.9291 55.3968 15.8849 55.3897C15.8702 55.3897 15.8481 55.3825 15.826 55.3825C15.8186 55.3825 15.8039 55.3825 15.7965 55.3825H15.7892C15.9438 55.3467 16.1058 55.3467 16.2678 55.404V55.4183Z" fill="white"/>
<path d="M15.6423 59.2181C15.1637 58.9533 14.4125 59.2682 14.3904 59.8336C14.3757 60.0984 14.5672 60.356 14.8028 60.4705C15.0753 60.5993 15.3698 60.5635 15.657 60.5206C15.7749 60.4991 15.8706 60.3703 15.878 60.2558C16.1136 59.9338 16.0179 59.4257 15.6423 59.2181Z" fill="white"/>
<path d="M53.6836 54.3949C53.0209 53.8367 51.8942 54.2804 51.1578 54.4307C50.959 54.4736 50.9148 54.631 50.959 54.7742C50.878 54.8887 50.8485 55.0318 50.9074 55.2322C51.121 56.0051 52.4023 55.7475 52.9767 55.6258C53.2786 55.5686 53.8162 55.497 53.9561 55.1821C54.096 54.903 53.9046 54.581 53.6836 54.3949V54.3949Z" fill="white"/>
<path d="M54.4062 56.8136C54.3988 56.8065 54.3915 56.7993 54.3841 56.7922C54.3105 56.7063 54.1485 56.6634 54.038 56.7063C53.8834 56.7636 53.7729 56.8566 53.7214 57.014C53.6919 57.1071 53.6919 57.2144 53.714 57.3074C53.7729 57.5365 53.9865 57.7082 54.2368 57.6724C54.4725 57.6438 54.6345 57.4291 54.6271 57.2001C54.6124 57.0283 54.5314 56.8924 54.4062 56.8136Z" fill="white"/>
<path d="M64.0223 28.2591C63.956 28.0444 63.5731 28.0731 63.5952 28.3164C63.6467 28.8388 63.7203 29.3612 63.7498 29.8908C63.7793 30.3632 63.713 30.8498 63.8161 31.315C63.8676 31.5511 64.2285 31.5297 64.2874 31.315C64.5598 30.4347 64.2947 29.1322 64.0223 28.2591Z" fill="#3C3C30"/>
<path d="M55.0322 52.4985C55.0469 52.4914 55.069 52.4842 55.0838 52.4699C56.9542 51.3463 58.3681 49.1922 59.5316 47.4246C62.2194 43.3453 63.9646 38.5433 64.2813 33.6983C64.296 33.4908 63.9352 33.4407 63.9057 33.6482C63.2651 38.0924 61.969 42.2933 59.6199 46.1865C58.5154 48.0114 57.2119 49.958 55.5772 51.375C53.5226 53.1569 50.2972 52.9995 47.7199 53.4003C47.4106 53.4504 47.4768 53.9728 47.7935 53.937C49.9069 53.708 52.5432 53.6865 54.5315 52.7562C58.0293 54.0229 58.994 57.4795 59.6788 60.7071C59.7599 61.0792 60.3416 60.9218 60.2606 60.5496C59.5905 57.3936 58.4712 53.6436 55.0322 52.4985V52.4985Z" fill="#3C3C30"/>
<path d="M21.9974 53.8653C19.906 53.9869 18.0209 53.7364 15.9443 53.5289C14.604 53.3929 13.6393 53.9368 12.5863 54.7312C10.3182 56.4488 8.69817 59.2255 8.63925 62.0523C8.63189 62.3028 9.059 62.3744 9.10318 62.1096C9.55238 59.1897 10.7601 56.5847 13.3153 54.8385C14.7808 53.8366 16.0621 54.1157 17.6895 54.2875C19.1402 54.4378 20.6056 54.4163 22.0489 54.2016C22.2478 54.173 22.1962 53.8509 21.9974 53.8653V53.8653Z" fill="#3C3C30"/>
<path d="M25.3777 54.1157C24.7297 54.0585 24.0448 54.0942 23.3894 54.0871C23.1759 54.0871 23.1243 54.4091 23.3379 54.4521C23.9933 54.5952 24.7812 54.6596 25.4366 54.5236C25.687 54.4807 25.606 54.1372 25.3777 54.1157Z" fill="#3C3C30"/>
<path d="M37.159 31.7605C37.2619 31.5916 37.3706 31.4258 37.4853 31.26C37.788 30.8319 38.1437 30.7384 38.4847 30.9887C38.811 31.2299 38.8374 31.6248 38.5494 32.0499C37.3001 33.9041 36.8592 35.9332 37.2442 38.1582C37.9673 42.3278 42.0268 45.2765 46.0921 44.5619C50.6776 43.7569 53.526 39.3461 52.4443 34.7242C51.5007 30.6872 47.5089 28.0521 43.523 28.8179C42.3619 29.041 41.3125 29.4993 40.3483 30.1897C39.8809 30.5244 39.3842 30.3766 39.246 29.8792C39.1431 29.5113 39.3371 29.2762 39.6105 29.0802C40.0691 28.7486 40.5453 28.4621 41.0391 28.2209C39.4371 28.9898 38.0879 30.2259 37.159 31.7605Z" fill="white"/>
<path d="M24.6509 27.8809C30.1991 27.8809 32.7923 33.61 33.3953 36.4746L36.7121 37.2284C37.0136 39.3392 37.496 42.1434 37.0136 36.4746C36.5311 30.8058 42.5417 28.3835 45.6073 27.8809L45.3058 26.6748L43.4966 25.3179H29.7768L25.5553 25.9209L24.6509 27.5794C22.3391 27.6799 19.1026 27.8809 24.6509 27.8809Z" fill="#FFD801"/>
<path d="M21.5067 38.8606C21.1569 39.5812 20.8336 40.2444 20.5161 40.9077C20.4044 41.1399 20.2604 41.3389 20.0017 41.3992C19.743 41.4595 19.5167 41.372 19.3491 41.164C19.1581 40.9258 19.1551 40.6605 19.2904 40.3892C19.7489 39.4515 20.2045 38.5139 20.6601 37.5732C20.7395 37.4134 20.813 37.2506 20.8924 37.0908C21.0188 36.8376 21.2069 36.6808 21.495 36.6717C21.8007 36.6657 21.9976 36.8346 22.1299 37.0999C22.3474 37.537 22.562 37.9742 22.8089 38.4777C23.3968 37.2627 23.9524 36.117 24.5079 34.9713C24.599 34.7874 24.6813 34.5975 24.7725 34.4136C24.8989 34.1633 25.0811 33.9945 25.3721 33.9885C25.6749 33.9824 25.8777 34.1362 26.0129 34.4075C26.9741 36.3853 27.9412 38.3571 28.8995 40.3349C29.1111 40.7721 29.0083 41.1429 28.6526 41.3328C28.2998 41.5198 27.9442 41.3811 27.7296 40.9409C27.0329 39.5239 26.3451 38.1008 25.6514 36.6778C25.5808 36.5361 25.5073 36.3944 25.4045 36.1984C25.0929 36.8315 24.8077 37.4044 24.5285 37.9802C23.8171 39.4395 23.1117 40.8987 22.4003 42.3549C22.1916 42.78 21.8683 42.9247 21.5155 42.774C21.1452 42.6142 21.0041 42.2464 21.1863 41.8454C21.4127 41.3449 21.6507 40.8474 21.9094 40.365C22.0446 40.1118 22.0711 39.8977 21.9124 39.6445C21.7654 39.4214 21.6625 39.1681 21.5067 38.8606Z" fill="#595959"/>
<path d="M23.4591 33.3587C23.4561 34.4685 22.5859 35.346 21.4951 35.337C20.4102 35.3309 19.5605 34.4413 19.5635 33.3195C19.5664 32.2098 20.4367 31.3353 21.5304 31.3413C22.6094 31.3474 23.4591 32.2339 23.4591 33.3587Z" fill="#595959"/>
<path d="M30.0375 34.0766C30.017 34.3903 29.8964 34.6044 29.6553 34.7099C29.4054 34.8185 29.1467 34.8124 28.9438 34.5983C28.8439 34.4928 28.7645 34.3571 28.6969 34.2244C28.1882 33.2413 27.4591 32.4874 26.4947 31.9748C26.4124 31.9296 26.3272 31.8873 26.2507 31.8301C25.9597 31.6099 25.8832 31.2571 26.0567 30.9465C26.2272 30.6359 26.5624 30.5092 26.8887 30.6721C28.2794 31.3536 29.3025 32.4181 29.9699 33.8414C30.0081 33.9259 30.0199 34.0224 30.0375 34.0766Z" fill="#595959"/>
<path d="M30.5999 36.684C30.594 37.073 30.3 37.3534 29.9178 37.3353C29.5562 37.3202 29.2974 37.0308 29.3033 36.6568C29.3092 36.2678 29.6032 35.9874 29.9854 36.0055C30.3441 36.0205 30.6058 36.31 30.5999 36.684Z" fill="#595959"/>
<path d="M51.6596 30.4434C50.1575 28.7276 48.047 27.5877 45.6748 27.3796C45.7248 27.3977 45.7865 27.4128 45.8541 27.4219C48.1763 27.6963 50.2045 28.7969 51.6596 30.4434Z" fill="white"/>
<path d="M53.5752 33.895C53.5783 33.9042 53.5813 33.9134 53.5844 33.9257C53.5813 33.9134 53.5783 33.9042 53.5752 33.895Z" fill="white"/>
<path d="M43.1554 45.8305C43.1114 45.8217 43.0645 45.8128 43.0205 45.804C43.0674 45.8128 43.1114 45.8217 43.1554 45.8305Z" fill="white"/>
<path d="M53.3813 33.3342C53.4019 33.3885 53.4225 33.4457 53.443 33.4999C53.4254 33.4457 53.4048 33.3915 53.3813 33.3342Z" fill="white"/>
<path d="M43.6401 45.9118C43.5786 45.9029 43.5171 45.8941 43.4556 45.8853C43.5171 45.8941 43.5786 45.9029 43.6401 45.9118Z" fill="white"/>
<path d="M42.6594 45.7166C42.6416 45.7106 42.6208 45.7076 42.603 45.7017C42.6208 45.7076 42.6416 45.7136 42.6594 45.7166Z" fill="white"/>
<path d="M44.1155 45.9634C44.0449 45.9574 43.9714 45.9515 43.9009 45.9426C43.9714 45.9515 44.0449 45.9574 44.1155 45.9634Z" fill="white"/>
<path d="M36.3685 39.9311C36.3391 39.8527 36.3126 39.7713 36.2861 39.6929C36.3126 39.7713 36.3391 39.8527 36.3685 39.9311Z" fill="white"/>
<path d="M52.251 31.1965C52.3244 31.2989 52.3978 31.4074 52.4653 31.5128C52.3978 31.4044 52.3244 31.2989 52.251 31.1965Z" fill="white"/>
<path d="M53.0449 32.5442C53.0742 32.6073 53.1035 32.6673 53.1328 32.7304C53.1035 32.6673 53.0742 32.6043 53.0449 32.5442Z" fill="white"/>
<path d="M51.7446 30.5454C51.8472 30.6657 51.9469 30.7919 52.0436 30.9182C51.9498 30.7919 51.8502 30.6687 51.7446 30.5454Z" fill="white"/>
<path d="M52.6509 31.8057C52.692 31.875 52.7302 31.9442 52.7713 32.0135C52.7302 31.9473 52.692 31.875 52.6509 31.8057Z" fill="white"/>
<path d="M45.9301 45.9397C45.8772 45.9456 45.8214 45.9515 45.7686 45.9574C45.8244 45.9515 45.8772 45.9456 45.9301 45.9397Z" fill="white"/>
<path d="M44.8889 45.9998C44.9418 45.9998 44.9977 45.9968 45.0506 45.9968C44.9742 45.9968 44.8948 45.9998 44.8184 45.9998C44.8419 45.9998 44.8654 45.9998 44.8889 45.9998Z" fill="white"/>
<path d="M45.5115 45.9758C45.438 45.9818 45.3645 45.9847 45.291 45.9906C45.3645 45.9877 45.438 45.9818 45.5115 45.9758Z" fill="white"/>
<path d="M44.5833 45.9937C44.5069 45.9908 44.4304 45.9878 44.3569 45.9849C44.4304 45.9878 44.5069 45.9908 44.5833 45.9937Z" fill="white"/>
<path d="M46.2876 45.8914C46.281 45.8914 46.2776 45.8947 46.271 45.8947C46.2776 45.8947 46.281 45.8914 46.2876 45.8914Z" fill="white"/>
<path d="M35.895 38.0466C35.9685 38.5653 36.0861 39.0659 36.239 39.5544C36.1008 39.1081 35.992 38.6407 35.9185 38.1612C35.9127 38.119 35.9038 38.0828 35.895 38.0466Z" fill="white"/>
<path d="M36.2834 39.6923C36.269 39.6472 36.2546 39.6021 36.2402 39.554C36.2517 39.5991 36.269 39.6442 36.2834 39.6923Z" fill="#595959"/>
<path d="M46.2692 45.8943C46.1578 45.912 46.0435 45.9238 45.9321 45.9386C46.0435 45.9238 46.1549 45.912 46.2692 45.8943Z" fill="#595959"/>
<path d="M51.6602 30.4429C51.6896 30.4761 51.7191 30.5124 51.7457 30.5457C51.7191 30.5124 51.6896 30.4792 51.6602 30.4429Z" fill="#595959"/>
<path d="M45.7692 45.9578C45.6839 45.9667 45.5956 45.9726 45.5103 45.9785C45.5985 45.9696 45.6839 45.9637 45.7692 45.9578Z" fill="#595959"/>
<path d="M43.4563 45.8853C43.3564 45.8702 43.2566 45.8491 43.1597 45.8311C43.2566 45.8491 43.3564 45.8672 43.4563 45.8853Z" fill="#595959"/>
<path d="M43.0231 45.8037C42.903 45.7766 42.7798 45.7495 42.6626 45.7195C42.7798 45.7465 42.9 45.7766 43.0231 45.8037Z" fill="#595959"/>
<path d="M44.3544 45.9846C44.272 45.9786 44.1927 45.9727 44.1133 45.9668C44.1956 45.9727 44.275 45.9786 44.3544 45.9846Z" fill="#595959"/>
<path d="M45.2899 45.991C45.2105 45.9939 45.1311 45.9969 45.0518 45.9969C45.1311 45.9969 45.2105 45.9939 45.2899 45.991Z" fill="#595959"/>
<path d="M43.8986 45.9452C43.8103 45.9363 43.725 45.9244 43.6396 45.9126C43.725 45.9244 43.8133 45.9363 43.8986 45.9452Z" fill="#595959"/>
<path d="M44.8197 45.9998C44.7403 45.9998 44.6609 45.9969 44.5815 45.9939C44.6639 45.9969 44.7403 45.9998 44.8197 45.9998Z" fill="#595959"/>
<path d="M52.0483 30.9192C52.119 31.0097 52.1866 31.1033 52.2514 31.1969C52.1866 31.1033 52.119 31.0097 52.0483 30.9192Z" fill="#595959"/>
<path d="M42.8445 27.5847C42.4916 27.6661 42.1506 27.7687 41.8154 27.8923C42.1477 27.7687 42.4916 27.6661 42.8445 27.5847Z" fill="#595959"/>
<path d="M41.1869 28.1545C41.1399 28.1756 41.09 28.1997 41.043 28.2208C41.09 28.1967 41.1399 28.1756 41.1869 28.1545Z" fill="#595959"/>
<path d="M41.7419 27.9192C41.6421 27.9583 41.5452 27.9975 41.4453 28.0397C41.5422 27.9975 41.6421 27.9583 41.7419 27.9192Z" fill="#595959"/>
<path d="M37.1592 31.7603C37.1475 31.7786 37.1387 31.7939 37.127 31.8123C37.1387 31.7939 37.1504 31.7756 37.1592 31.7603Z" fill="#595959"/>
<path d="M53.8827 35.2185C53.8122 34.7723 53.7064 34.3412 53.58 33.9221C53.8416 34.7904 53.9827 35.713 53.9827 36.6717C53.9827 41.3358 50.6434 45.201 46.2842 45.8914C46.4018 45.8733 46.5223 45.8552 46.6399 45.8311C51.4106 44.9116 54.6617 40.148 53.8827 35.2185Z" fill="#595959"/>
<path d="M36.8947 32.2277C36.2774 33.3734 35.9158 34.6126 35.8071 35.9482C35.7924 36.1381 35.7924 36.2648 35.5484 36.1833C34.7753 35.918 34.0052 36.0115 33.2527 36.2346C32.7823 32.0981 30.7747 29.243 26.9622 27.8169C26.3919 27.6028 25.7982 27.4672 25.1897 27.425C24.9369 27.4069 24.8928 27.3134 25.0192 27.0933C25.4395 26.3516 26.0715 26.017 26.8975 26.017C31.9711 26.017 37.0416 26.017 42.1152 26.017C42.318 26.017 42.5179 26.0381 42.7178 26.0863C43.2792 26.219 43.679 26.5536 43.9817 27.0451C44.114 27.2591 44.0876 27.3586 43.9171 27.4038C44.2375 27.3677 44.5638 27.3496 44.8959 27.3496C45.1605 27.3496 45.4221 27.3647 45.6808 27.3858C45.525 27.3255 45.4427 27.2109 45.378 27.0029C45.0399 25.9145 44.3257 25.1969 43.2645 24.8321C42.8589 24.6934 42.4444 24.6603 42.027 24.6904C41.7477 24.7085 41.5773 24.6633 41.6478 24.3226C41.6596 24.2683 41.6449 24.211 41.6507 24.1568C41.7448 22.996 40.7689 21.9619 39.5402 22.0011C37.8647 22.0553 36.1863 22.0131 34.5078 22.0131C32.8176 22.0131 31.1245 22.0131 29.4343 22.0131C28.1615 22.0131 27.3561 22.8332 27.3531 24.1296C27.3531 24.6753 27.3531 24.6783 26.7917 24.6783C25.3631 24.6783 24.2873 25.3326 23.7552 26.6712C23.5201 27.2621 23.2144 27.3677 22.7029 27.44C21.2479 27.645 19.931 28.2269 18.7493 29.1163C18.4054 29.3756 18.3436 29.7344 18.5612 30.06C18.7669 30.3705 19.1461 30.4399 19.49 30.2228C19.5812 30.1655 19.6664 30.0932 19.7575 30.0329C21.4889 28.857 23.3937 28.4108 25.4307 28.7817C29.7782 29.5776 32.5825 33.7021 31.733 38.1521C31.1068 41.4293 29.1227 43.582 25.9775 44.3749C22.7617 45.186 20.0015 44.1729 17.9439 41.4927C15.8128 38.7189 15.7834 35.0045 17.7528 32.0499C18.0556 31.5946 18.035 31.2027 17.694 30.9554C17.356 30.7082 16.9827 30.8198 16.674 31.278C15.1573 33.5423 14.6575 36.0236 15.2307 38.7038C16.289 43.6423 21.0186 46.7326 25.7688 45.8402C29.5489 45.1287 32.6883 41.7972 33.1086 37.8988C33.1351 37.6546 33.2321 37.5702 33.4437 37.531C34.0375 37.4225 34.6166 37.317 35.2368 37.4737C35.6101 37.5672 35.8012 37.6486 35.8923 38.0466C35.8276 37.5974 35.7924 37.1391 35.7924 36.6718C35.7953 35.0618 36.1921 33.5483 36.8947 32.2277Z" fill="#595959"/>
<path d="M36.3677 39.9309C37.4053 42.8343 39.7628 44.9538 42.6052 45.7045C39.7216 44.9387 37.3936 42.7589 36.3677 39.9309Z" fill="#595959"/>
<path d="M43.237 27.5002C43.2222 27.5033 43.2073 27.5063 43.1895 27.5094C43.2073 27.5063 43.2222 27.5033 43.237 27.5002Z" fill="#595959"/>
<path d="M53.4463 33.5C53.4932 33.6293 53.5342 33.7616 53.5753 33.8938C53.5342 33.7616 53.4903 33.6293 53.4463 33.5Z" fill="#595959"/>
<path d="M52.4673 31.5132C52.529 31.6096 52.5906 31.709 52.6523 31.8084C52.5906 31.7059 52.529 31.6096 52.4673 31.5132Z" fill="#595959"/>
<path d="M53.1353 32.7312C53.2263 32.927 53.3085 33.1289 53.3849 33.3337C53.3056 33.1289 53.2234 32.927 53.1353 32.7312Z" fill="#595959"/>
<path d="M52.7695 32.0168C52.8665 32.1886 52.9604 32.3633 53.0456 32.544C52.9575 32.3633 52.8665 32.1886 52.7695 32.0168Z" fill="#595959"/>
<path d="M53.9839 36.6716C53.9839 35.7158 53.8428 34.7933 53.5812 33.9219C53.5782 33.9129 53.5753 33.9039 53.5724 33.8918C53.5312 33.7591 53.4871 33.6265 53.443 33.4968C53.4224 33.4396 53.4019 33.3853 53.3813 33.331C53.3049 33.126 53.2226 32.924 53.1314 32.728C53.102 32.6647 53.0727 32.6014 53.0433 32.5411C52.958 32.3632 52.8639 32.1853 52.7669 32.0135C52.7287 31.9441 52.6876 31.8718 52.6464 31.8055C52.5876 31.706 52.5259 31.6065 52.4612 31.51C52.3907 31.4015 52.3201 31.2959 52.2467 31.1934C52.1791 31.1 52.1114 31.0095 52.0438 30.916C51.9468 30.7894 51.8469 30.6628 51.744 30.5422C51.7146 30.509 51.6882 30.4729 51.6588 30.4397C50.2037 28.7905 48.1755 27.6901 45.8533 27.4187C45.7857 27.4097 45.724 27.3976 45.674 27.3765C45.4153 27.3524 45.1537 27.3403 44.8892 27.3403C44.557 27.3403 44.2307 27.3584 43.9103 27.3946C43.875 27.4036 43.8339 27.4127 43.7869 27.4187C43.6017 27.4398 43.4194 27.467 43.2401 27.4971C43.2254 27.5001 43.2107 27.5031 43.1931 27.5062C43.0755 27.5273 42.9609 27.5544 42.8433 27.5815C42.4905 27.6659 42.1466 27.7654 41.8145 27.8891C41.791 27.8981 41.7645 27.9071 41.741 27.9162C41.641 27.9554 41.544 27.9946 41.4441 28.0368C41.3588 28.073 41.2707 28.1122 41.1854 28.1514C41.1384 28.1725 41.0884 28.1966 41.0414 28.2177C40.5476 28.4589 40.0714 28.7453 39.6128 29.0769C39.3394 29.2729 39.1454 29.5081 39.2483 29.8759C39.3865 30.3764 39.8862 30.5211 40.3506 30.1864C41.3148 29.496 42.3641 29.0377 43.5252 28.8146C47.5112 28.0488 51.503 30.6839 52.4465 34.7209C53.5283 39.3428 50.6799 43.7537 46.0943 44.5586C42.029 45.2732 37.9667 42.3246 37.2465 38.1549C36.8615 35.9269 37.3024 33.8978 38.5517 32.0466C38.8368 31.6215 38.8133 31.2266 38.487 30.9854C38.146 30.7352 37.7903 30.8256 37.4876 31.2567C37.3729 31.4195 37.2642 31.5884 37.1613 31.7572C37.1495 31.7753 37.1407 31.7904 37.1289 31.8085C37.0466 31.9441 36.9702 32.0858 36.8938 32.2245C36.1942 33.5451 35.7974 35.0616 35.7974 36.6716C35.7974 37.1389 35.8326 37.5972 35.8973 38.0464C35.9061 38.0826 35.9149 38.1187 35.9208 38.1609C35.9943 38.6403 36.1031 39.1046 36.2412 39.5538C36.2559 39.5991 36.2706 39.6443 36.2853 39.6925C36.3118 39.7739 36.3382 39.8523 36.3676 39.9307C37.3964 42.7587 39.7216 44.9385 42.6052 45.7043C42.6228 45.7103 42.6434 45.7134 42.661 45.7194C42.7816 45.7495 42.9021 45.7797 43.0226 45.8038C43.0667 45.8129 43.1137 45.8219 43.1578 45.8309C43.2577 45.849 43.3548 45.8701 43.4547 45.8852C43.5164 45.8943 43.5782 45.9033 43.6399 45.9123C43.7251 45.9244 43.8133 45.9365 43.8986 45.9455C43.9691 45.9546 44.0426 45.9606 44.1131 45.9666C44.1925 45.9726 44.2748 45.9817 44.3542 45.9847C44.4306 45.9877 44.5041 45.9907 44.5805 45.9938C44.6599 45.9968 44.7392 45.9998 44.8186 45.9998C44.895 45.9998 44.9715 45.9998 45.0508 45.9968C45.1302 45.9968 45.2096 45.9938 45.2889 45.9907C45.3624 45.9877 45.4359 45.9817 45.5094 45.9757C45.5946 45.9696 45.6828 45.9636 45.7681 45.9546C45.821 45.9485 45.8768 45.9425 45.9297 45.9365C46.0444 45.9244 46.1561 45.9093 46.2678 45.8912C46.2736 45.8912 46.2766 45.8882 46.2825 45.8882C50.6446 45.2038 53.9839 41.3387 53.9839 36.6716Z" fill="#595959"/>
<path d="M37.1256 31.8115C37.0435 31.9468 36.9644 32.0851 36.8911 32.2264C36.9673 32.0851 37.0435 31.9468 37.1256 31.8115Z" fill="white"/>
<path d="M43.1926 27.5093C43.0753 27.5333 42.961 27.5574 42.8438 27.5844C42.9581 27.5574 43.0753 27.5303 43.1926 27.5093Z" fill="white"/>
<path d="M41.4455 28.0398C41.3572 28.076 41.2719 28.1152 41.1865 28.1545C41.2719 28.1122 41.3572 28.076 41.4455 28.0398Z" fill="white"/>
<path d="M41.8122 27.8921C41.7887 27.901 41.7623 27.9098 41.7388 27.9187C41.7652 27.9098 41.7887 27.901 41.8122 27.8921Z" fill="white"/>
<path d="M43.7875 27.4218C43.8374 27.4158 43.8756 27.4098 43.9109 27.3977C43.6847 27.4218 43.4615 27.458 43.2383 27.5001C43.4204 27.467 43.6025 27.4429 43.7875 27.4218Z" fill="white"/>
<path d="M34.4966 24.6815C32.6565 24.6815 30.8193 24.6755 28.9792 24.6875C28.7176 24.6906 28.6412 24.6272 28.6441 24.3498C28.6559 23.5567 28.844 23.3486 29.6318 23.3486C32.877 23.3486 36.1221 23.3486 39.3673 23.3486C40.1492 23.3486 40.3374 23.5597 40.352 24.3558C40.3579 24.6423 40.2639 24.6906 40.014 24.6875C38.1739 24.6755 36.3338 24.6815 34.4966 24.6815Z" fill="#FFD801"/>
<path d="M21.5211 34.0039C21.1888 34.01 20.8713 33.6963 20.8654 33.3526C20.8566 33.0118 21.1653 32.6861 21.5005 32.6771C21.8298 32.6711 22.1502 32.9877 22.1591 33.3284C22.162 33.6692 21.8533 33.9979 21.5211 34.0039Z" fill="#FFD801"/>
<path d="M42.2916 38.8544C41.9359 39.59 41.6214 40.2473 41.301 40.9015C41.0688 41.3749 40.7337 41.5286 40.3603 41.3417C39.9753 41.1518 39.8871 40.7659 40.1222 40.2805C40.6249 39.2433 41.1364 38.2092 41.639 37.169C41.7742 36.8887 41.9506 36.6836 42.2739 36.6746C42.6208 36.6655 42.8089 36.8796 42.9471 37.1751C43.144 37.5941 43.3557 38.0042 43.5908 38.4805C44.0964 37.4464 44.5726 36.4786 45.0459 35.5078C45.2222 35.149 45.3927 34.7903 45.5691 34.4315C45.6925 34.1782 45.8807 34.0154 46.1687 34.0094C46.4744 34.0003 46.6773 34.1662 46.8066 34.4345C47.7678 36.4123 48.732 38.3871 49.6873 40.3679C49.8931 40.796 49.7755 41.1699 49.4051 41.3477C49.0582 41.5166 48.7231 41.3809 48.5144 40.9558C47.8148 39.5388 47.127 38.1157 46.4333 36.6927C46.3627 36.548 46.2893 36.4063 46.2128 36.2495C46.057 36.352 46.0276 36.5088 45.9659 36.6384C45.0635 38.4775 44.167 40.3197 43.2704 42.1618C43.2234 42.2613 43.1764 42.3608 43.1234 42.4572C42.9177 42.807 42.5973 42.9215 42.2651 42.7587C41.9124 42.5869 41.786 42.2432 41.9594 41.8543C42.1799 41.3658 42.3974 40.8744 42.662 40.4101C42.8324 40.1086 42.8295 39.8644 42.6502 39.581C42.5238 39.379 42.4356 39.1468 42.2916 38.8544Z" fill="#595959"/>
<path d="M42.2876 31.3413C43.3755 31.3413 44.2369 32.2219 44.2369 33.3376C44.2369 34.4534 43.3814 35.3369 42.2906 35.3399C41.2028 35.343 40.3384 34.4594 40.3413 33.3436C40.3443 32.2219 41.1998 31.3413 42.2876 31.3413Z" fill="#595959"/>
<path d="M34.8473 27.3435C35.6439 27.3676 36.5581 27.8652 37.2077 28.8513C37.4811 29.2644 37.4252 29.6745 37.0872 29.9037C36.7609 30.1238 36.4141 30.0213 36.1201 29.6172C35.2265 28.3839 33.7626 28.3929 32.8632 29.6323C32.5751 30.0274 32.2135 30.1238 31.8931 29.8947C31.5698 29.6625 31.5228 29.2735 31.7697 28.8724C32.3399 27.9376 33.3893 27.3465 34.8473 27.3435Z" fill="#595959"/>
<path d="M47.3601 30.5995C47.557 30.5964 47.6746 30.6658 47.7952 30.7291C49.0712 31.4016 50.0355 32.3907 50.6882 33.6995C50.9029 34.1307 50.8088 34.5046 50.4501 34.6916C50.1061 34.8695 49.7445 34.7489 49.5445 34.3418C49.0036 33.2411 48.2039 32.4178 47.119 31.8811C46.7926 31.7182 46.6868 31.4227 46.7779 31.0819C46.8632 30.7683 47.1043 30.6176 47.3601 30.5995Z" fill="#595959"/>
<path d="M50.722 36.0052C51.0866 35.9992 51.3688 36.2676 51.3835 36.6385C51.3982 37.0305 51.1248 37.3321 50.7455 37.3381C50.3633 37.3441 50.0811 37.0546 50.084 36.6626C50.0899 36.2887 50.3574 36.0113 50.722 36.0052Z" fill="#595959"/>
<path d="M42.3023 32.6771C42.6345 32.6831 42.9433 33.0118 42.9374 33.3526C42.9286 33.6963 42.611 34.01 42.2788 34.0039C41.9436 33.9949 41.6349 33.6692 41.6437 33.3284C41.6526 32.9847 41.9701 32.6711 42.3023 32.6771Z" fill="#FFD801"/>
</svg>
