<svg width="70" height="70" viewBox="0 0 70 70" fill="none" xmlns="http://www.w3.org/2000/svg">
<path d="M57.3065 52.0117C63.772 46.0432 66.8502 36.8542 65.7971 28.3236C65.1933 23.4285 63.2639 18.9915 60.5172 14.8693C53.7939 4.75714 40.9292 1.916 35.6419 2.00188C30.5461 2.08775 25.2514 3.63357 20.6269 5.64455C15.3617 7.92749 11.4146 11.8994 8.74154 16.6441C5.92116 20.7806 4.34529 25.783 4.0581 30.7282C3.77827 35.4945 4.50729 40.4682 6.28936 44.9268C7.30558 47.4673 8.91828 51.1386 11.4956 52.8991C9.05083 54.8314 7.37185 57.6726 7.20248 60.7856C7.05521 63.455 8.72681 65.1082 11.2821 65.7737C14.2277 66.5395 17.5414 66.8258 20.5753 66.9617C24.0364 67.1192 27.5122 66.7542 30.9585 66.5109C34.5594 66.2604 38.1677 66.0099 41.7687 65.7666C45.3696 65.5233 48.9779 65.2799 52.5789 65.0366C54.2652 64.9221 55.9589 64.8076 57.6453 64.6931C58.9045 64.6072 60.554 64.7289 61.5702 63.8415C63.367 62.267 61.9605 58.4812 61.1431 56.7422C60.2889 54.903 58.9634 53.2355 57.3065 52.0117V52.0117Z" fill="white"/>
<path opacity="0.5" d="M59.4593 17.3453C54.9746 9.59474 47.6623 4.84281 38.5089 4.20587C24.6501 3.23974 11.1226 11.2193 6.45384 24.0008C3.86911 31.0858 4.74541 38.9652 8.18436 45.6064C9.9296 48.9771 12.2861 51.6465 15.0843 53.8293C16.3215 55.3679 17.8311 56.6275 19.5911 57.6795C20.8135 58.4095 22.1758 58.8889 23.5381 59.347C26.5647 60.356 29.3998 59.9624 32.4411 59.4257C33.3616 59.2611 34.2894 58.8961 35.1731 58.4953C40.5193 59.2611 46.3589 57.8298 50.814 55.0817C56.742 51.4247 61.3739 45.3917 62.8835 38.6789C64.533 31.3649 63.2222 23.8434 59.4593 17.3453V17.3453Z" fill="#D8E4E9"/>
<ellipse cx="41.7602" cy="10.357" rx="0.955477" ry="0.92857" fill="white"/>
<ellipse cx="36.0273" cy="14.0711" rx="0.955477" ry="0.92857" fill="white"/>
<ellipse cx="44.1486" cy="14.5356" rx="0.477739" ry="0.464285" fill="white"/>
<ellipse cx="48.926" cy="15.4643" rx="0.477739" ry="0.464285" fill="white"/>
<path d="M35.0716 8.96413C35.0716 8.86999 34.9931 8.79366 34.8962 8.79366H34.6203L34.883 8.53832C34.9515 8.47175 34.9515 8.36381 34.883 8.29725C34.8145 8.23069 34.7034 8.23068 34.6349 8.29725L34.1241 8.79368H33.8645L34.1272 8.53834C34.1957 8.47176 34.1957 8.36383 34.1272 8.29726C34.0587 8.23069 33.9477 8.23069 33.8792 8.29726L33.3684 8.79369H32.1509L33.0118 7.95705H33.7342C33.8311 7.95705 33.9096 7.88074 33.9096 7.78659C33.9096 7.69244 33.8311 7.61613 33.7342 7.61613H33.3626L33.5462 7.43771H34.2686C34.3655 7.43771 34.444 7.3614 34.444 7.26725C34.444 7.1731 34.3655 7.09679 34.2686 7.09679H33.897L34.0922 6.90712C34.1607 6.84055 34.1607 6.73261 34.0922 6.66605C34.0237 6.59947 33.9126 6.59947 33.8441 6.66605L33.649 6.85572V6.49456C33.649 6.40041 33.5704 6.3241 33.4736 6.3241C33.3767 6.3241 33.2982 6.40041 33.2982 6.49456V7.1966L33.1146 7.37502V7.01393C33.1146 6.91978 33.036 6.84347 32.9392 6.84347C32.8423 6.84347 32.7638 6.91978 32.7638 7.01393V7.71597L31.9029 8.55261V7.36944L32.4137 6.87301C32.4822 6.80643 32.4822 6.6985 32.4137 6.63194C32.3452 6.56536 32.2341 6.56536 32.1656 6.63194L31.9029 6.88728V6.63494L32.4137 6.13852C32.4822 6.07194 32.4822 5.96401 32.4137 5.89745C32.3452 5.83087 32.2341 5.83087 32.1656 5.89745L31.9029 6.15279V5.88457C31.9029 5.79042 31.8243 5.71411 31.7275 5.71411C31.6306 5.71411 31.5521 5.79042 31.5521 5.88457V6.15279L31.2893 5.89745C31.2208 5.83087 31.1098 5.83087 31.0413 5.89745C30.9728 5.96402 30.9728 6.07196 31.0413 6.13852L31.5521 6.63494V6.88728L31.2893 6.63194C31.2208 6.56536 31.1098 6.56536 31.0413 6.63194C30.9728 6.69851 30.9728 6.80645 31.0413 6.87301L31.5521 7.36944V8.55261L30.6912 7.71597V7.01391C30.6912 6.91977 30.6127 6.84345 30.5158 6.84345C30.4189 6.84345 30.3404 6.91977 30.3404 7.01391V7.37502L30.1568 7.1966V6.49455C30.1568 6.4004 30.0783 6.32409 29.9814 6.32409C29.8846 6.32409 29.806 6.4004 29.806 6.49455V6.85565L29.6108 6.66602C29.5423 6.59945 29.4313 6.59945 29.3628 6.66602C29.2943 6.7326 29.2943 6.84053 29.3628 6.9071L29.558 7.09676H29.1864C29.0895 7.09676 29.011 7.17308 29.011 7.26722C29.011 7.36137 29.0895 7.43769 29.1864 7.43769H29.9087L30.0923 7.61611H29.7208C29.6239 7.61611 29.5454 7.69242 29.5454 7.78657C29.5454 7.88072 29.6239 7.95703 29.7208 7.95703H30.4432L31.304 8.79366H30.0866L29.5758 8.29724C29.5073 8.23066 29.3962 8.23066 29.3277 8.29724C29.2592 8.36381 29.2592 8.47175 29.3277 8.53831L29.5904 8.79365H29.3308L28.82 8.29724C28.7515 8.23066 28.6404 8.23066 28.5719 8.29724C28.5034 8.36381 28.5034 8.47175 28.5719 8.53831L28.8347 8.79365H28.5587C28.4618 8.79365 28.3833 8.86998 28.3833 8.96411C28.3833 9.05826 28.4618 9.13457 28.5587 9.13457H28.8347L28.572 9.38993C28.5035 9.4565 28.5035 9.56444 28.572 9.631C28.6062 9.66429 28.6511 9.68093 28.696 9.68093C28.7409 9.68093 28.7858 9.66429 28.82 9.631L29.3308 9.13457H29.5905L29.3277 9.38993C29.2592 9.4565 29.2592 9.56444 29.3277 9.631C29.362 9.66429 29.4069 9.68093 29.4517 9.68093C29.4966 9.68093 29.5415 9.66429 29.5758 9.631L30.0866 9.13457H31.304L30.4431 9.97121H29.7208C29.6239 9.97121 29.5454 10.0475 29.5454 10.1417C29.5454 10.2358 29.6239 10.3121 29.7208 10.3121H30.0923L29.9087 10.4906H29.1863C29.0895 10.4906 29.0109 10.5669 29.0109 10.661C29.0109 10.7552 29.0895 10.8315 29.1863 10.8315H29.5579L29.3628 11.0211C29.2942 11.0877 29.2942 11.1956 29.3628 11.2622C29.397 11.2955 29.4419 11.3121 29.4868 11.3121C29.5317 11.3121 29.5766 11.2955 29.6108 11.2622L29.806 11.0725V11.4337C29.806 11.5278 29.8845 11.6041 29.9814 11.6041C30.0782 11.6041 30.1568 11.5278 30.1568 11.4337V10.7316L30.3403 10.5532V10.9143C30.3403 11.0084 30.4189 11.0848 30.5157 11.0848C30.6126 11.0848 30.6911 11.0084 30.6911 10.9143V10.2123L31.552 9.37562V10.5588L31.0412 11.0552C30.9727 11.1218 30.9727 11.2297 31.0412 11.2963C31.1097 11.3629 31.2208 11.3629 31.2893 11.2963L31.552 11.0409V11.2933L31.0412 11.7897C30.9727 11.8563 30.9727 11.9642 31.0412 12.0308C31.0754 12.0641 31.1203 12.0807 31.1652 12.0807C31.2101 12.0807 31.255 12.0641 31.2892 12.0308L31.552 11.7754V12.0436C31.552 12.1378 31.6305 12.2141 31.7274 12.2141C31.8243 12.2141 31.9028 12.1378 31.9028 12.0436V11.7754L32.1655 12.0308C32.234 12.0974 32.3451 12.0974 32.4136 12.0308C32.4821 11.9642 32.4821 11.8563 32.4136 11.7897L31.9028 11.2933V11.0409L32.1655 11.2963C32.1998 11.3296 32.2447 11.3462 32.2896 11.3462C32.3344 11.3462 32.3793 11.3296 32.4136 11.2963C32.4821 11.2297 32.4821 11.1218 32.4136 11.0552L31.9028 10.5588V9.37571L32.7636 10.2123V10.9144C32.7636 11.0085 32.8422 11.0848 32.939 11.0848C33.0359 11.0848 33.1144 11.0085 33.1144 10.9144V10.5533L33.298 10.7317V11.4337C33.298 11.5279 33.3766 11.6042 33.4734 11.6042C33.5703 11.6042 33.6488 11.5279 33.6488 11.4337V11.0726L33.844 11.2623C33.8782 11.2956 33.9231 11.3122 33.968 11.3122C34.0129 11.3122 34.0578 11.2956 34.092 11.2623C34.1605 11.1957 34.1605 11.0878 34.092 11.0212L33.8969 10.8316H34.2684C34.3653 10.8316 34.4438 10.7553 34.4438 10.6611C34.4438 10.567 34.3653 10.4906 34.2684 10.4906H33.5461L33.3625 10.3122H33.734C33.8309 10.3122 33.9094 10.2359 33.9094 10.1418C33.9094 10.0476 33.8309 9.9713 33.734 9.9713H33.0117L32.1508 9.13466H33.3682L33.879 9.63109C33.9133 9.66438 33.9582 9.68102 34.0031 9.68102C34.0479 9.68102 34.0928 9.66438 34.1271 9.63109C34.1956 9.56452 34.1956 9.45659 34.1271 9.39002L33.8643 9.13466H34.124L34.6348 9.63109C34.669 9.66438 34.7139 9.68102 34.7588 9.68102C34.8037 9.68102 34.8486 9.66438 34.8828 9.63109C34.9513 9.56452 34.9513 9.45659 34.8828 9.39002L34.6201 9.13466H34.8961C34.9931 9.13459 35.0716 9.05827 35.0716 8.96413Z" fill="#A8D4EB"/>
<path d="M57.048 15.9284C57.048 15.8746 57.0031 15.831 56.9478 15.831H56.79L56.9402 15.6851C56.9793 15.6471 56.9793 15.5854 56.9402 15.5474C56.901 15.5093 56.8376 15.5093 56.7984 15.5474L56.5065 15.831H56.3582L56.5083 15.6851C56.5475 15.6471 56.5475 15.5854 56.5083 15.5474C56.4692 15.5093 56.4057 15.5093 56.3666 15.5474L56.0747 15.831H55.379L55.8709 15.353H56.2837C56.3391 15.353 56.3839 15.3094 56.3839 15.2556C56.3839 15.2018 56.3391 15.1582 56.2837 15.1582H56.0714L56.1763 15.0562H56.5891C56.6445 15.0562 56.6893 15.0126 56.6893 14.9588C56.6893 14.905 56.6445 14.8614 56.5891 14.8614H56.3768L56.4883 14.753C56.5274 14.715 56.5274 14.6533 56.4883 14.6153C56.4491 14.5772 56.3857 14.5772 56.3465 14.6153L56.235 14.7236V14.5173C56.235 14.4635 56.1902 14.4199 56.1348 14.4199C56.0794 14.4199 56.0346 14.4635 56.0346 14.5173V14.9184L55.9297 15.0204V14.814C55.9297 14.7602 55.8848 14.7166 55.8294 14.7166C55.7741 14.7166 55.7292 14.7602 55.7292 14.814V15.2152L55.2373 15.6933V15.0172L55.5292 14.7335C55.5683 14.6955 55.5683 14.6338 55.5292 14.5958C55.49 14.5577 55.4266 14.5577 55.3874 14.5958L55.2373 14.7417V14.5975L55.5292 14.3138C55.5683 14.2758 55.5683 14.2141 55.5292 14.1761C55.49 14.138 55.4266 14.138 55.3874 14.1761L55.2373 14.322V14.1687C55.2373 14.1149 55.1924 14.0713 55.137 14.0713C55.0817 14.0713 55.0368 14.1149 55.0368 14.1687V14.322L54.8867 14.1761C54.8475 14.138 54.7841 14.138 54.7449 14.1761C54.7058 14.2141 54.7058 14.2758 54.7449 14.3138L55.0368 14.5975V14.7417L54.8867 14.5958C54.8475 14.5577 54.7841 14.5577 54.7449 14.5958C54.7058 14.6338 54.7058 14.6955 54.7449 14.7335L55.0368 15.0172V15.6933L54.5449 15.2152V14.814C54.5449 14.7602 54.5 14.7166 54.4447 14.7166C54.3893 14.7166 54.3444 14.7602 54.3444 14.814V15.0204L54.2395 14.9184V14.5173C54.2395 14.4635 54.1947 14.4198 54.1393 14.4198C54.0839 14.4198 54.0391 14.4635 54.0391 14.5173V14.7236L53.9275 14.6152C53.8884 14.5772 53.8249 14.5772 53.7858 14.6152C53.7466 14.6533 53.7466 14.715 53.7858 14.753L53.8973 14.8614H53.685C53.6296 14.8614 53.5847 14.905 53.5847 14.9588C53.5847 15.0126 53.6296 15.0562 53.685 15.0562H54.0978L54.2027 15.1581H53.9903C53.935 15.1581 53.8901 15.2017 53.8901 15.2555C53.8901 15.3093 53.935 15.353 53.9903 15.353H54.4031L54.8951 15.831H54.1994L53.9075 15.5474C53.8683 15.5093 53.8049 15.5093 53.7657 15.5474C53.7266 15.5854 53.7266 15.6471 53.7657 15.6851L53.9159 15.831H53.7675L53.4756 15.5474C53.4365 15.5093 53.373 15.5093 53.3339 15.5474C53.2947 15.5854 53.2947 15.6471 53.3339 15.6851L53.484 15.831H53.3263C53.2709 15.831 53.2261 15.8746 53.2261 15.9284C53.2261 15.9822 53.2709 16.0258 53.3263 16.0258H53.484L53.3339 16.1718C53.2947 16.2098 53.2947 16.2715 53.3339 16.3095C53.3535 16.3285 53.3791 16.338 53.4047 16.338C53.4304 16.338 53.4561 16.3285 53.4756 16.3095L53.7675 16.0258H53.9159L53.7657 16.1718C53.7266 16.2098 53.7266 16.2715 53.7657 16.3095C53.7853 16.3285 53.811 16.338 53.8366 16.338C53.8623 16.338 53.8879 16.3285 53.9075 16.3095L54.1994 16.0258H54.8951L54.4031 16.5039H53.9903C53.935 16.5039 53.8901 16.5475 53.8901 16.6013C53.8901 16.6551 53.935 16.6987 53.9903 16.6987H54.2027L54.0978 16.8007H53.685C53.6296 16.8007 53.5847 16.8443 53.5847 16.8981C53.5847 16.9519 53.6296 16.9955 53.685 16.9955H53.8973L53.7858 17.1039C53.7466 17.1419 53.7466 17.2036 53.7858 17.2416C53.8053 17.2607 53.831 17.2702 53.8566 17.2702C53.8823 17.2702 53.9079 17.2607 53.9275 17.2416L54.039 17.1333V17.3396C54.039 17.3934 54.0839 17.437 54.1392 17.437C54.1946 17.437 54.2395 17.3934 54.2395 17.3396V16.9384L54.3444 16.8365V17.0428C54.3444 17.0966 54.3893 17.1402 54.4446 17.1402C54.5 17.1402 54.5448 17.0966 54.5448 17.0428V16.6417L55.0368 16.1636V16.8397L54.7449 17.1234C54.7057 17.1614 54.7057 17.2231 54.7449 17.2611C54.784 17.2991 54.8475 17.2991 54.8866 17.2611L55.0368 17.1152V17.2594L54.7449 17.5431C54.7057 17.5811 54.7057 17.6428 54.7449 17.6808C54.7644 17.6998 54.7901 17.7093 54.8157 17.7093C54.8414 17.7093 54.867 17.6998 54.8866 17.6808L55.0367 17.5349V17.6882C55.0367 17.742 55.0816 17.7856 55.137 17.7856C55.1923 17.7856 55.2372 17.742 55.2372 17.6882V17.5349L55.3873 17.6808C55.4265 17.7189 55.49 17.7189 55.5291 17.6808C55.5682 17.6428 55.5682 17.5811 55.5291 17.5431L55.2372 17.2594V17.1152L55.3873 17.2611C55.4069 17.2801 55.4326 17.2896 55.4582 17.2896C55.4839 17.2896 55.5095 17.2801 55.5291 17.2611C55.5682 17.2231 55.5682 17.1614 55.5291 17.1234L55.2372 16.8397V16.1636L55.7291 16.6417V17.0429C55.7291 17.0967 55.774 17.1403 55.8294 17.1403C55.8847 17.1403 55.9296 17.0967 55.9296 17.0429V16.8365L56.0345 16.9385V17.3396C56.0345 17.3934 56.0794 17.4371 56.1347 17.4371C56.1901 17.4371 56.2349 17.3934 56.2349 17.3396V17.1333L56.3465 17.2417C56.366 17.2607 56.3917 17.2702 56.4173 17.2702C56.443 17.2702 56.4686 17.2607 56.4882 17.2417C56.5274 17.2036 56.5274 17.142 56.4882 17.1039L56.3767 16.9955H56.589C56.6444 16.9955 56.6892 16.9519 56.6892 16.8981C56.6892 16.8443 56.6444 16.8007 56.589 16.8007H56.1762L56.0713 16.6988H56.2836C56.339 16.6988 56.3839 16.6552 56.3839 16.6014C56.3839 16.5476 56.339 16.504 56.2836 16.504H55.8709L55.3789 16.0259H56.0746L56.3665 16.3096C56.3861 16.3286 56.4117 16.3381 56.4374 16.3381C56.463 16.3381 56.4887 16.3286 56.5082 16.3096C56.5474 16.2715 56.5474 16.2098 56.5082 16.1718L56.3581 16.0259H56.5065L56.7984 16.3096C56.8179 16.3286 56.8436 16.3381 56.8692 16.3381C56.8949 16.3381 56.9205 16.3286 56.9401 16.3096C56.9792 16.2715 56.9792 16.2098 56.9401 16.1718L56.7899 16.0259H56.9477C57.0031 16.0258 57.048 15.9822 57.048 15.9284Z" fill="#A8D4EB"/>
<path d="M53.3166 40.826C53.2503 40.7973 53.1841 40.7759 53.1251 40.7472C52.5287 40.2892 51.8291 40.0244 51.1074 39.8312C49.885 39.3732 48.5448 39.1585 47.2561 39.0225C45.1868 38.8078 43.0955 38.7649 41.0189 38.7362C36.8877 38.679 32.7345 38.8722 28.6622 39.5879C26.3058 40.003 23.9199 40.5683 21.7033 41.4557C21.6886 41.4629 21.696 41.4772 21.7107 41.4772C25.6651 40.3035 29.6195 39.4591 33.7507 39.137C37.764 38.8221 41.8142 38.8579 45.8275 39.1084C46.181 39.1299 46.5271 39.1585 46.8732 39.1943C46.7038 39.2229 46.5418 39.2587 46.3872 39.3159C46.3356 39.3374 46.3209 39.4161 46.3872 39.4304H46.3945C46.2767 39.4447 46.1515 39.4591 46.0337 39.4805C45.7539 39.4948 45.474 39.5163 45.2016 39.5521C45.1353 39.5592 45.1279 39.6594 45.2016 39.6594H45.2163C45.0101 39.7167 44.8113 39.7811 44.6051 39.8598C44.5683 39.8741 44.583 39.9314 44.6198 39.9242C45.0101 39.8384 45.4004 39.7525 45.7907 39.6881C46.0116 39.6952 46.2325 39.7024 46.4608 39.7095C46.4534 39.7453 46.4755 39.7883 46.5271 39.7811C48.7878 39.6809 50.9749 40.3178 53.1399 40.8546C53.1472 40.8546 53.1472 40.8546 53.1546 40.8617H53.1767C53.2209 40.8689 53.2577 40.8832 53.3019 40.8904C53.3313 40.8975 53.3608 40.8403 53.3166 40.826V40.826ZM48.1545 39.5378C48.4417 39.5736 48.7215 39.6165 49.0014 39.6666C48.6111 39.6022 48.2208 39.5521 47.8305 39.5163C47.941 39.5235 48.044 39.5306 48.1545 39.5378V39.5378Z" fill="#B9D6D3"/>
<path opacity="0.5" d="M58.3909 44.2179C58.7517 43.1874 58.1552 41.7632 57.0654 41.5056C56.7929 41.3768 56.4836 41.3052 56.1596 41.3338C56.1522 41.3338 56.1522 41.341 56.1596 41.341C57.0875 41.5199 57.7502 42.0495 58.03 42.851C58.0374 42.8939 58.0521 42.9369 58.0595 42.9798C58.0742 43.0729 58.0816 43.1587 58.0889 43.2446C57.8901 42.7794 57.5072 42.4145 56.9402 42.2642C56.1228 42.0495 55.3128 41.8348 54.4954 41.6272C54.2303 41.5557 53.9799 41.5414 53.7516 41.5771C43.5084 39.3014 32.5583 39.6019 22.4108 42.0853C19.6714 42.758 16.9762 43.6024 14.3473 44.6044C14.2148 44.5829 14.0749 44.5757 13.9349 44.5829C14.4431 44.1177 15.1132 43.8028 15.7538 43.4951C16.5786 43.1015 17.4254 42.7866 18.287 42.5003C18.6847 42.3787 19.0897 42.257 19.4873 42.1354C19.5462 42.121 19.5168 42.0423 19.4652 42.0495C17.6832 42.3286 15.8937 42.9369 14.2663 43.7026C13.4784 44.0676 12.5726 44.7046 12.2044 45.5132C11.9393 45.9212 11.8362 46.4221 11.9909 46.8945C12.6978 49.0557 13.957 51.0381 15.6802 52.5767C16.0263 52.8845 16.3945 53.185 16.7848 53.4713C16.8658 53.5643 16.9394 53.6574 17.0204 53.7504C16.8142 54.509 17.1898 55.2604 17.8599 55.7328C19.6788 57.0066 22.1015 56.9279 24.2444 56.9852C26.6524 57.0496 29.0678 57.0567 31.4758 57.0066C33.847 56.9565 36.2108 56.8563 38.5746 56.6989C40.8132 56.5486 43.0887 56.4126 45.3052 56.0333C46.5129 55.8258 47.7058 55.4823 48.8031 54.9599C49.4216 55.1459 50.1065 54.9599 50.644 54.5376C53.597 52.1974 56.6309 49.3706 57.8386 45.778C58.1258 45.2985 58.3246 44.7618 58.3909 44.2179V44.2179ZM13.4563 44.6688C13.4268 44.6759 13.3974 44.6902 13.3679 44.7046C13.4342 44.6115 13.5078 44.5185 13.5888 44.4398C13.7656 44.3181 13.9497 44.2036 14.1411 44.0962C13.8834 44.2537 13.6404 44.4469 13.4563 44.6688Z" fill="#B9D6D3"/>
<path d="M59.8994 62.7824C59.8994 62.7824 8.75708 68.114 8.63189 62.4031C8.55825 59.0968 10.5244 56.6206 12.1887 55.1178C13.3963 54.03 14.442 53.4646 14.442 53.4646C33.2568 55.4327 49.509 53.393 53.6033 52.7919C54.2513 52.6989 54.5974 52.6416 54.5974 52.6416C59.4797 56.0481 59.8994 62.7824 59.8994 62.7824V62.7824Z" fill="#FFD801"/>
<path d="M54.6048 52.6484C54.6048 52.6484 54.2587 52.7057 53.6106 52.7987C54.1703 53.1852 54.6931 53.6074 55.1792 54.0726C55.378 54.3231 55.5621 54.5807 55.7462 54.8312C56.4458 55.7687 57.1601 56.699 57.8302 57.658C57.867 57.7153 57.9038 57.7654 57.9406 57.8226C58.029 58.0087 58.11 58.2019 58.1836 58.3951C58.4708 59.1466 59.082 60.5349 58.3236 61.1576C57.7123 61.6657 56.7477 61.8947 55.9745 62.045C54.9877 62.2382 53.9641 62.2525 52.9626 62.2239C51.0627 62.1666 49.1702 61.9591 47.2703 61.9448C45.2526 61.9305 43.2349 62.0235 41.2246 62.1738C33.3083 62.7678 25.2596 64.2492 17.3434 62.8537C15.5981 62.5459 13.4921 62.2096 12.1224 61.0144C10.3403 59.4686 11.2755 57.1785 12.1518 55.418C12.2034 55.3178 12.2108 55.2176 12.1887 55.1246C10.5244 56.6203 8.55825 59.1036 8.63189 62.41C8.75708 68.1137 59.8994 62.7892 59.8994 62.7892C59.8994 62.7892 59.4797 56.0478 54.6048 52.6484Z" fill="#FFD801"/>
<path d="M25.9661 11.2623C25.7451 10.8472 25.5169 10.4393 25.2959 10.0242C25.2739 9.98844 25.2518 9.95265 25.2223 9.92403C25.0824 9.63777 24.8247 9.39444 24.4933 9.24416C23.6243 8.84339 22.6891 9.30141 21.9895 9.81668C20.3253 11.0404 18.7862 12.4932 17.3429 13.9532C14.4563 16.873 11.9599 20.2151 10.3472 23.9651C9.90537 24.9885 9.53717 26.0334 9.24998 27.1069C9.00697 28.0157 8.66087 29.1035 8.73451 30.0697C8.68296 30.3488 8.64614 30.6279 8.62405 30.8998C8.60932 31.1074 8.70505 31.2433 8.85233 31.3078C8.94806 31.501 9.30153 31.5081 9.37517 31.2648C9.46353 31.2076 9.54454 31.1288 9.58872 31.0215C10.1926 29.4757 10.5534 27.8655 11.2309 26.334C11.9157 24.8025 12.7478 23.3354 13.6978 21.947C15.5829 19.2061 17.9689 16.7657 20.723 14.8406C22.2988 13.7385 23.9852 12.801 25.7599 12.0352C26.0544 11.9135 26.106 11.5128 25.9661 11.2623V11.2623ZM21.452 11.5128C21.4446 11.5199 21.4446 11.5271 21.4373 11.5342C21.4225 11.5557 21.4152 11.5772 21.4078 11.5987C21.3121 11.6559 21.2237 11.7203 21.1353 11.7776C21.2458 11.6845 21.3489 11.5987 21.452 11.5128V11.5128ZM20.885 13.3449C21.1722 13.1373 21.4667 12.9298 21.7613 12.7294C21.776 12.7437 21.7907 12.758 21.8054 12.7723C21.4962 12.9512 21.1869 13.1445 20.885 13.3449ZM23.9925 10.0743C23.9704 10.0171 23.941 9.96697 23.8894 9.93118C23.9557 9.93118 24.022 9.93834 24.0809 9.95265C24.1104 9.95981 24.1324 9.96697 24.1619 9.98128C24.1104 10.0171 24.0514 10.0457 23.9925 10.0743V10.0743Z" fill="white"/>
<path d="M9.65504 33.5621C9.27211 33.3831 8.84501 33.6265 8.70509 33.9914C8.62409 34.2061 8.59463 34.5139 8.65354 34.7787C8.65354 35.0578 8.71982 35.344 8.81555 35.5516C8.98492 35.9022 9.41939 36.1026 9.73604 35.7877C10.0306 35.5015 10.0453 34.9218 10.0453 34.5425C10.0453 34.199 10.0306 33.7338 9.65504 33.5621V33.5621Z" fill="white"/>
<path d="M56.4095 24.9956C56.1738 24.3945 55.1723 24.645 55.4006 25.2676C55.408 25.2891 55.4153 25.3105 55.4227 25.3248C55.4006 25.3964 55.3933 25.4823 55.408 25.5682C55.6068 26.4914 55.9897 27.3788 56.1886 28.3163C56.4021 29.3182 56.5347 30.3273 56.5862 31.3506C56.6967 33.2758 56.5715 35.2366 56.2401 37.1403C55.5921 40.8831 53.3976 43.8746 51.4388 47.0664C51.0854 47.6461 50.4668 48.5406 51.2768 49.0344C51.3431 49.0774 51.4094 49.106 51.4757 49.1275C51.5051 49.2205 51.5419 49.3135 51.5861 49.4066C51.7187 49.6714 52.0132 49.7143 52.2489 49.6141C52.3372 49.6356 52.4403 49.6213 52.5287 49.5426C59.5465 43.4094 59.576 32.9537 56.4095 24.9956V24.9956ZM57.2342 38.4785C57.1901 38.7577 57.1459 39.0296 57.0943 39.3016C57.0722 39.2658 57.0501 39.2371 57.0207 39.2085C57.1164 38.8578 57.2048 38.5 57.2858 38.1494C57.2637 38.2567 57.249 38.3712 57.2342 38.4785V38.4785Z" fill="white"/>
<path d="M54.5097 20.3726C54.2741 20.3726 54.1047 20.6016 54.1636 20.8163C54.2078 20.9809 54.2815 21.1383 54.3772 21.2743C54.3993 21.353 54.4287 21.4246 54.4656 21.489C54.6055 21.718 54.8779 21.8754 55.1504 21.8611C55.386 21.8468 55.526 21.6965 55.548 21.4747C55.6143 20.9021 55.0915 20.3797 54.5097 20.3726V20.3726Z" fill="white"/>
<path d="M49.5083 49.8502C49.3168 49.7572 49.118 49.8717 49.0738 50.0363C48.7056 50.1079 48.3816 50.3011 48.2638 50.6875C48.1091 51.2028 48.551 51.6537 49.0517 51.7109C49.5819 51.7753 50.009 51.4103 50.3109 51.031C50.7675 50.4371 49.9648 50.0649 49.5083 49.8502V49.8502Z" fill="white"/>
<path d="M17.8437 55.7045C17.748 55.5972 17.6228 55.5113 17.4902 55.4326C17.2251 54.903 16.6065 54.5667 16.0027 54.5667C14.309 54.5667 13.8451 56.8925 15.4504 57.4579C16.3341 57.7728 17.2398 57.3362 17.7553 56.6206C17.9615 56.3343 18.1014 56.0123 17.8437 55.7045ZM16.2678 55.4183C16.1868 55.4111 16.1058 55.4111 16.0248 55.4183C15.9806 55.404 15.9291 55.3968 15.8849 55.3897C15.8702 55.3897 15.8481 55.3825 15.826 55.3825C15.8186 55.3825 15.8039 55.3825 15.7965 55.3825H15.7892C15.9438 55.3467 16.1058 55.3467 16.2678 55.404V55.4183Z" fill="white"/>
<path d="M15.6423 59.2181C15.1637 58.9533 14.4125 59.2682 14.3904 59.8336C14.3757 60.0984 14.5672 60.356 14.8028 60.4705C15.0753 60.5993 15.3698 60.5635 15.657 60.5206C15.7749 60.4991 15.8706 60.3703 15.878 60.2558C16.1136 59.9338 16.0179 59.4257 15.6423 59.2181Z" fill="white"/>
<path d="M53.6836 54.3949C53.0209 53.8367 51.8942 54.2804 51.1578 54.4307C50.959 54.4736 50.9148 54.631 50.959 54.7742C50.878 54.8887 50.8485 55.0318 50.9074 55.2322C51.121 56.0051 52.4023 55.7475 52.9767 55.6258C53.2786 55.5686 53.8162 55.497 53.9561 55.1821C54.096 54.903 53.9046 54.581 53.6836 54.3949V54.3949Z" fill="white"/>
<path d="M54.4062 56.8136C54.3988 56.8065 54.3915 56.7993 54.3841 56.7922C54.3105 56.7063 54.1485 56.6634 54.038 56.7063C53.8834 56.7636 53.7729 56.8566 53.7214 57.014C53.6919 57.1071 53.6919 57.2144 53.714 57.3074C53.7729 57.5365 53.9865 57.7082 54.2368 57.6724C54.4725 57.6438 54.6345 57.4291 54.6271 57.2001C54.6124 57.0283 54.5314 56.8924 54.4062 56.8136Z" fill="white"/>
<path d="M64.0223 28.2591C63.956 28.0444 63.5731 28.0731 63.5952 28.3164C63.6467 28.8388 63.7203 29.3612 63.7498 29.8908C63.7793 30.3632 63.713 30.8498 63.8161 31.315C63.8676 31.5511 64.2285 31.5297 64.2874 31.315C64.5598 30.4347 64.2947 29.1322 64.0223 28.2591Z" fill="#3C3C30"/>
<path d="M55.0322 52.4985C55.0469 52.4914 55.069 52.4842 55.0838 52.4699C56.9542 51.3463 58.3681 49.1922 59.5316 47.4246C62.2194 43.3453 63.9646 38.5433 64.2813 33.6983C64.296 33.4908 63.9352 33.4407 63.9057 33.6482C63.2651 38.0924 61.969 42.2933 59.6199 46.1865C58.5154 48.0114 57.2119 49.958 55.5772 51.375C53.5226 53.1569 50.2972 52.9995 47.7199 53.4003C47.4106 53.4504 47.4768 53.9728 47.7935 53.937C49.9069 53.708 52.5432 53.6865 54.5315 52.7562C58.0293 54.0229 58.994 57.4795 59.6788 60.7071C59.7599 61.0792 60.3416 60.9218 60.2606 60.5496C59.5905 57.3936 58.4712 53.6436 55.0322 52.4985V52.4985Z" fill="#3C3C30"/>
<path d="M21.9974 53.8653C19.906 53.9869 18.0209 53.7364 15.9443 53.5289C14.604 53.3929 13.6393 53.9368 12.5863 54.7312C10.3182 56.4488 8.69817 59.2255 8.63925 62.0523C8.63189 62.3028 9.059 62.3744 9.10318 62.1096C9.55238 59.1897 10.7601 56.5847 13.3153 54.8385C14.7808 53.8366 16.0621 54.1157 17.6895 54.2875C19.1402 54.4378 20.6056 54.4163 22.0489 54.2016C22.2478 54.173 22.1962 53.8509 21.9974 53.8653V53.8653Z" fill="#3C3C30"/>
<path d="M25.3777 54.1157C24.7297 54.0585 24.0448 54.0942 23.3894 54.0871C23.1759 54.0871 23.1243 54.4091 23.3379 54.4521C23.9933 54.5952 24.7812 54.6596 25.4366 54.5236C25.687 54.4807 25.606 54.1372 25.3777 54.1157Z" fill="#3C3C30"/>
<path d="M50.169 28.7663C49.2735 29.3425 48.261 29.6798 47.2174 29.7498C46.0729 29.6554 44.9682 29.2591 44.0031 28.5963C42.8446 27.7941 41.5119 27.3238 40.1337 27.2313C39.1057 27.2729 38.0984 27.5531 37.1821 28.0526V19.4003C38.0774 18.8238 39.0898 18.4862 40.1337 18.4165C41.2782 18.5109 42.3829 18.9073 43.348 19.5701C44.5065 20.3723 45.8392 20.8426 47.2174 20.9351C48.2454 20.8932 49.2527 20.6135 50.169 20.1149V28.7663Z" fill="#FFD801" fill-opacity="0.5"/>
<path d="M49.8876 19.3335C49.7185 19.2349 49.5138 19.2458 49.3542 19.3616C48.5058 19.9599 47.5335 20.3168 46.5259 20.3997C45.5188 20.3147 44.5467 19.9581 43.6975 19.3616C42.6782 18.6397 41.5055 18.2165 40.2928 18.1333C39.3882 18.1707 38.5019 18.4229 37.6956 18.8724V18.6801C37.6891 18.0776 37.3909 17.5237 36.9114 17.2244C36.4319 16.9252 35.8429 16.9252 35.3633 17.2244C34.8838 17.5237 34.5855 18.0777 34.5791 18.6801V32.8649H33.0208C32.734 32.8649 32.5014 33.1187 32.5014 33.4316C32.5014 33.7445 32.734 33.9982 33.0208 33.9982H38.4008C38.8191 33.981 39.1837 34.3073 39.2495 34.7585C39.2729 34.9981 39.2018 35.2374 39.054 35.4165C38.9063 35.5955 38.6958 35.698 38.4748 35.698H37.1762C36.8894 35.698 36.6568 35.9517 36.6568 36.2646C36.6568 36.5775 36.8894 36.8312 37.1762 36.8312H38.4748C38.9052 36.8312 39.2539 37.2117 39.2539 37.6811C39.2539 38.1506 38.9052 38.5311 38.4748 38.5311H37.1762C36.8894 38.5311 36.6568 38.7848 36.6568 39.0977C36.6568 39.4106 36.8894 39.6643 37.1762 39.6643H38.4748C38.9052 39.6643 39.2539 40.0447 39.2539 40.5142C39.2539 40.9837 38.9052 41.3641 38.4748 41.3641H37.1762C36.8894 41.3641 36.6568 41.6179 36.6568 41.9308C36.6568 42.2437 36.8894 42.4974 37.1762 42.4974H38.4748C38.9052 42.4974 39.2539 42.8778 39.2539 43.3473C39.2539 43.8168 38.9052 44.1972 38.4748 44.1972H32.8425C32.1533 44.1952 31.4922 44.4942 31.0061 45.0271L30.4236 45.6625L23.8866 38.531L29.2699 32.6586C30.1448 31.6992 31.335 31.1614 32.5754 31.1652H33.0211C33.308 31.1652 33.5405 30.9115 33.5405 30.5986C33.5405 30.2857 33.308 30.032 33.0211 30.032H32.5754C31.0594 30.0275 29.6045 30.6849 28.5355 31.8575L23.1453 37.7372C22.8457 37.4579 22.4616 37.3097 22.0675 37.3208C21.6735 37.3322 21.2971 37.5025 21.0115 37.7987L19.1487 39.8304C18.949 40.0522 18.9507 40.4081 19.1522 40.6279C19.3537 40.8477 19.68 40.8495 19.8833 40.6317L21.7463 38.5997H21.7461C21.9513 38.385 22.2752 38.385 22.4804 38.5997L30.3609 47.1961C30.5631 47.4177 30.5633 47.7758 30.3611 47.9974L28.4984 50.0292C28.3996 50.1351 28.3437 50.2798 28.343 50.4308C28.3423 50.5821 28.397 50.7273 28.4951 50.8341C28.593 50.941 28.7261 51.0007 28.8647 51C29.0032 50.9992 29.1358 50.9383 29.233 50.8305L31.096 48.7985H31.0957C31.3754 48.4914 31.537 48.0794 31.5475 47.6468C31.5579 47.214 31.4164 46.7934 31.1521 46.4706L31.7411 45.8284C32.0339 45.5107 32.4298 45.3316 32.8428 45.3303H38.4751C38.9595 45.3306 39.424 45.1198 39.7653 44.7447C40.1066 44.3698 40.2965 43.8619 40.2931 43.3335C40.2894 42.8051 40.0927 42.2999 39.7463 41.9306C40.096 41.558 40.2931 41.0473 40.2931 40.5141C40.2931 39.9809 40.096 39.4702 39.7463 39.0975C40.0957 38.7249 40.2931 38.2145 40.2931 37.6815C40.2931 37.1483 40.0962 36.6376 39.7467 36.265C39.7729 36.2367 39.7985 36.2081 39.8233 36.1782C40.1681 35.7609 40.3353 35.2044 40.2838 34.6453C40.2244 34.1485 40 33.6927 39.6528 33.3644C39.3057 33.0363 38.8602 32.8585 38.4011 32.8648H37.6959V29.2172C38.4837 28.6984 39.3745 28.3946 40.2931 28.3319C41.3002 28.4169 42.2722 28.7735 43.1214 29.37C44.1408 30.0919 45.3135 30.5151 46.5262 30.5984C47.739 30.5151 48.9116 30.0919 49.9309 29.37C50.0754 29.2648 50.1621 29.088 50.1621 28.8985V19.8327C50.1621 19.6237 50.0566 19.4317 49.8878 19.3331L49.8876 19.3335ZM35.6179 32.865V18.6802C35.6202 18.5291 35.6789 18.3855 35.7802 18.2823C35.8815 18.1793 36.017 18.1254 36.1554 18.1333C36.4321 18.1335 36.6565 18.3784 36.6567 18.6802V32.865H35.6179ZM49.123 28.5802C48.3351 29.0987 47.4441 29.4023 46.5259 29.4653C45.5188 29.3803 44.5467 29.0236 43.6975 28.4272C42.6781 27.7053 41.5055 27.282 40.2927 27.1988C39.3882 27.2362 38.5019 27.4884 37.6956 27.9379V20.1517C38.4833 19.6329 39.3742 19.3291 40.2927 19.2663C41.2998 19.3513 42.2719 19.708 43.1211 20.3044C44.1405 21.0263 45.3131 21.4496 46.5259 21.5328C47.4304 21.4951 48.3167 21.2434 49.123 20.7947V28.5802Z" fill="#595959"/>
</svg>
