<svg _ngcontent-veenaworld-c103="" width="30" height="30" viewBox="0 0 30 30" fill="none" xmlns="http://www.w3.org/2000/svg"><g _ngcontent-veenaworld-c103="" clip-path="url(#clip0_242_2126)"><path _ngcontent-veenaworld-c103="" d="M27.5685 0H2.43152C1.09078 0 0 1.09078 0 2.43152V3.79283C0 5.9417 0.739277 8.0492 2.0816 9.72703C3.19775 11.1223 4.78641 12.2153 6.55506 12.8048L7.59018 13.1498C8.68705 14.979 10.4483 16.3778 12.5685 17.0004V18.5739C12.5685 19.2039 12.056 19.7164 11.426 19.7164C10.0853 19.7164 8.99449 20.8072 8.99449 22.1479V23.2903H7.85203C7.49607 23.2903 7.2075 23.5789 7.2075 23.9348V28.7109H6.0651C5.70914 28.7109 5.42057 28.9995 5.42057 29.3555C5.42057 29.7114 5.70914 30 6.0651 30H23.935C24.2909 30 24.5795 29.7114 24.5795 29.3555C24.5795 28.9995 24.2909 28.7109 23.935 28.7109H22.7926V23.9349C22.7926 23.5789 22.504 23.2904 22.148 23.2904H21.0056V22.148C21.0056 20.8072 19.9148 19.7164 18.574 19.7164C17.9441 19.7164 17.4316 19.2039 17.4316 18.574V17.0005C19.5501 16.3784 21.3103 14.9811 22.4074 13.1541L23.4962 12.8075C23.499 12.8067 23.5018 12.8058 23.5046 12.8048C25.2457 12.2245 26.772 11.1602 27.9185 9.72715C29.2607 8.0492 30 5.9417 30 3.79283V2.43152C30 1.09078 28.9092 0 27.5685 0ZM3.08824 8.92184C1.92803 7.47164 1.28906 5.65014 1.28906 3.79283V2.43152C1.28906 1.80158 1.80158 1.28906 2.43152 1.28906H5.48818L6.42211 9.6944C6.49289 10.3313 6.6341 10.9484 6.83742 11.5377C5.35242 11.0169 4.02463 10.0924 3.08824 8.92184ZM21.5034 28.7109H8.49656V24.5794H21.5034V28.7109ZM16.6424 15.8751C16.3498 15.9424 16.1425 16.2029 16.1425 16.5032V18.574C16.1425 19.9148 17.2332 21.0056 18.574 21.0056C19.2039 21.0056 19.7164 21.5181 19.7164 22.148V23.2904H10.2836V22.148C10.2836 21.5181 10.7961 21.0056 11.426 21.0056C12.7668 21.0056 13.8575 19.9148 13.8575 18.574V16.5032C13.8575 16.2029 13.6502 15.9424 13.3576 15.8751C10.3181 15.1757 8.0458 12.6347 7.70332 9.55207L6.78521 1.28906H23.2148L22.2967 9.55201C21.9543 12.6347 19.6819 15.1757 16.6424 15.8751ZM28.7109 3.79283C28.7109 5.65008 28.072 7.47158 26.9118 8.92178C25.9337 10.1444 24.6354 11.0557 23.1547 11.5615C23.3624 10.9651 23.5062 10.3398 23.5778 9.69434L24.5118 1.28906H27.5685C28.1984 1.28906 28.7109 1.80158 28.7109 2.43152V3.79283Z" fill="white"></path><path _ngcontent-veenaworld-c103="" d="M17.2086 11.5004C17.1081 11.5004 17.0072 11.4769 16.9144 11.4292L14.9999 10.4466L13.0854 11.4292C12.8676 11.541 12.6055 11.5198 12.4086 11.3746C12.2117 11.2294 12.1139 10.9853 12.1562 10.7443L12.5182 8.68307L10.9815 7.22062C10.8024 7.05023 10.7366 6.79248 10.8119 6.55717C10.8873 6.3218 11.0906 6.15029 11.3353 6.1156L13.4719 5.81238L14.4246 3.92766C14.5343 3.71074 14.7567 3.57393 14.9998 3.57393C15.2429 3.57393 15.4653 3.71074 15.575 3.92766L16.5277 5.81238L18.6643 6.1156C18.909 6.15029 19.1123 6.32185 19.1877 6.55717C19.263 6.79254 19.1972 7.05023 19.0181 7.22062L17.4814 8.68307L17.8434 10.7443C17.8858 10.9853 17.788 11.2294 17.5911 11.3746C17.4782 11.4579 17.3438 11.5004 17.2086 11.5004ZM14.9999 9.07758C15.1009 9.07758 15.2018 9.10125 15.2942 9.14871L16.3496 9.69041L16.1521 8.566C16.1147 8.35348 16.1862 8.13633 16.3425 7.98756L17.165 7.20492L16.0138 7.04156C15.8051 7.01197 15.6242 6.88225 15.5291 6.69416L14.9999 5.64726L14.4707 6.6941C14.3756 6.88219 14.1946 7.01191 13.986 7.0415L12.8348 7.20486L13.6572 7.9875C13.8136 8.13627 13.8851 8.35342 13.8477 8.56594L13.6502 9.69035L14.7056 9.14865C14.798 9.10125 14.8989 9.07758 14.9999 9.07758Z" fill="#FFD801"></path></g></svg>