<svg _ngcontent-veenaworld-c103="" width="30" height="30" viewBox="0 0 30 30" fill="none" xmlns="http://www.w3.org/2000/svg"><g _ngcontent-veenaworld-c103="" clip-path="url(#clip0_242_2131)"><path _ngcontent-veenaworld-c103="" d="M6.07389 8.89096C4.65357 8.89096 3.49805 7.73543 3.49805 6.31512C3.63955 2.89787 8.50881 2.89887 8.64979 6.31512C8.64979 7.73543 7.4942 8.89096 6.07389 8.89096ZM6.07389 5.02828C5.36438 5.02828 4.78711 5.60555 4.78711 6.31506C4.85783 8.02219 7.29029 8.02166 7.36072 6.31506C7.36072 5.60555 6.78346 5.02828 6.07389 5.02828Z" fill="#FFD801"></path><path _ngcontent-veenaworld-c103="" d="M6.07404 17.762C5.84582 17.762 5.63441 17.6412 5.51863 17.4445L0.935721 9.661C0.319666 8.61492 -0.00400555 7.41897 3.74164e-05 6.2049C3.74164e-05 2.83195 2.74416 0.0878334 6.11705 0.0878334C11.0522 0.0955092 13.8147 5.56178 11.2745 9.67846C11.2745 9.67846 6.62717 17.4483 6.62717 17.4483C6.5108 17.6429 6.30068 17.762 6.07404 17.762ZM6.11711 1.3769C3.44699 1.37613 1.27603 3.55764 1.2891 6.22764C1.2891 7.20428 1.55101 8.16539 2.04654 9.00697L6.07844 15.8545L10.1683 9.0167C10.6765 8.16715 10.9451 7.19484 10.9451 6.2049C10.9451 3.54276 8.77926 1.3769 6.11711 1.3769Z" fill="#FFD801"></path><path _ngcontent-veenaworld-c103="" d="M19.8692 24.1151C18.4156 24.1151 17.2082 25.1884 16.9974 26.5841H4.16898C3.08072 26.5841 2.19537 25.6987 2.19537 24.6105C2.19537 23.5222 3.08072 22.6368 4.16898 22.6368H12.2444C16.3308 22.4689 16.3339 16.6424 12.2444 16.4729H7.21123L6.62781 17.4483C6.51379 17.639 6.30959 17.7564 6.08816 17.761C6.08781 17.7613 6.08752 17.7616 6.08717 17.7619H12.2444C14.6215 17.8599 14.6236 21.2489 12.2444 21.3477H4.16893C2.36986 21.3477 0.90625 22.8113 0.90625 24.6104C0.90625 26.4095 2.36986 27.8731 4.16893 27.8731H17.0928C18.1271 31.0158 22.6947 30.3655 22.7737 27.0195C22.7737 25.4181 21.4708 24.1151 19.8692 24.1151ZM19.8692 28.6351C18.9784 28.6351 18.2537 27.9104 18.2537 27.0197C18.3425 24.8765 21.3963 24.8771 21.4847 27.0197C21.4847 27.9104 20.76 28.6351 19.8692 28.6351Z" fill="white"></path><path _ngcontent-veenaworld-c103="" d="M29.9996 14.6762C29.9894 14.4223 29.8309 14.198 29.5949 14.1036L20.1086 10.3091C19.6972 10.1362 19.2165 10.4603 19.2247 10.9076V24.1881C19.6368 24.0915 20.1017 24.0916 20.5138 24.1883V19.8104L29.6422 15.2794C29.8698 15.1663 30.0098 14.9302 29.9996 14.6762ZM20.5138 18.3712V11.8595L27.7783 14.7653L20.5138 18.3712Z" fill="#FFD801"></path></g></svg>