<svg _ngcontent-veenaworld-c103="" width="30" height="30" viewBox="0 0 30 30" fill="none" xmlns="http://www.w3.org/2000/svg"><g _ngcontent-veenaworld-c103="" clip-path="url(#clip0_242_2146)"><path _ngcontent-veenaworld-c103="" d="M7.43758 22.6038L7.43741 22.6037C8.06389 23.2302 8.06389 24.2496 7.43747 24.876C7.34489 24.9686 7.24141 25.0496 7.12979 25.117C7.06217 25.1593 6.98243 25.194 6.90743 25.2307L2.29715 27.7022C2.3428 27.6134 4.78206 23.1983 4.82905 23.0963C4.90962 22.9119 5.02264 22.7462 5.16503 22.6038C5.47827 22.2905 5.88971 22.1338 6.30122 22.1338C6.71272 22.1338 7.12417 22.2905 7.43741 22.6038L7.43729 22.6037L5.73485 20.9012C5.19169 21.0087 4.6736 21.2722 4.25354 21.6922C4.00428 21.9414 3.80483 22.2305 3.6604 22.5516L0.117995 28.9883C-0.0197006 29.2384 0.0236002 29.5492 0.224401 29.7523C0.348561 29.8778 0.514674 29.9436 0.682838 29.9436C0.786608 29.9436 0.891198 29.9186 0.987174 29.8671L7.49624 26.3777C7.81604 26.2332 8.1011 26.0348 8.34895 25.7876C8.76901 25.3675 9.03251 24.8494 9.14003 24.3063L7.43758 22.6038Z" fill="#FFD801"></path><path _ngcontent-veenaworld-c103="" d="M18.9421 14.5801C17.0894 14.6184 15.4224 12.9928 15.4596 11.0992C15.447 8.02125 19.232 6.45416 21.4046 8.63677C22.7555 9.93298 22.7557 12.2655 21.4046 13.5618C20.7257 14.2406 19.8339 14.5801 18.9421 14.5801ZM18.9421 8.90677C17.7753 8.88257 16.7252 9.90662 16.7487 11.0992C16.7487 11.6851 16.9768 12.2359 17.3911 12.6502C18.7596 14.0248 21.1436 13.0378 21.1356 11.0991C21.1588 9.90668 20.109 8.88252 18.9421 8.90677Z" fill="#FFD801"></path><path _ngcontent-veenaworld-c103="" d="M29.1041 6.26713C29.9991 3.05543 30.0004 0.753223 30.0001 0.656778C29.9994 0.481465 29.9272 0.313887 29.8003 0.192891C29.6734 0.0718952 29.5026 0.00802798 29.3275 0.0154694C26.0068 0.16043 22.827 0.928712 19.8765 2.29904C16.258 4.01191 13.1901 6.36691 10.7262 9.63709L5.43094 9.37963C5.24912 9.37037 5.0724 9.43916 4.94391 9.56766L0.188789 14.3227C0.0219725 14.4895 -0.0403712 14.734 0.0262499 14.9604C0.092871 15.1867 0.277793 15.3585 0.508359 15.4084L6.3375 16.6689C5.46234 18.2988 4.91531 19.4558 4.90805 19.4712C4.79209 19.7172 4.84301 20.0095 5.03531 20.2018L7.43707 22.6036L7.43719 22.6037L7.43736 22.6038L9.88916 25.0556C10.0912 25.2578 10.4019 25.3016 10.6506 25.1673C10.7758 25.0999 11.8467 24.5213 13.3233 23.6742L14.5784 29.4783C14.6762 29.9692 15.3144 30.1586 15.6641 29.7979L20.4191 25.0429C20.5477 24.9143 20.6159 24.7374 20.6071 24.5558L20.3498 19.2623C25.0018 15.9883 27.7134 11.0858 29.1041 6.26713ZM27.8502 5.96455C27.6299 6.74971 27.3387 7.63623 26.9551 8.58404L21.4078 3.03668C23.7096 2.09432 26.1484 1.52648 28.6797 1.34397C28.6165 2.23148 28.4258 3.91295 27.8502 5.96455ZM5.65342 10.6811L9.82547 10.8839C8.92559 12.1794 7.88584 13.8734 6.98391 15.4898L1.93617 14.3983L5.65342 10.6811ZM7.46971 17.2891L9.65496 19.4744L7.89293 21.2365L6.27105 19.6146C6.49963 19.1494 6.91711 18.3174 7.46971 17.2891ZM10.4595 23.8029L8.80447 22.148L10.5665 20.3859L12.7146 22.534C11.7281 23.1009 10.9206 23.5494 10.4595 23.8029ZM19.3056 24.3332L15.5883 28.0505L14.495 22.9943C15.9424 22.1447 17.5995 21.1342 19.1011 20.1268L19.3056 24.3332ZM21.8135 16.4147C20.2554 17.9728 16.6744 20.2154 13.8677 21.8641L11.478 19.4744L14.5842 16.3682C14.8359 16.1165 14.8358 15.7084 14.5842 15.4567C14.3324 15.205 13.9243 15.205 13.6726 15.4567L10.5664 18.5629L8.11553 16.1119C9.56502 13.5247 11.605 10.2485 13.6261 8.22738C15.5415 6.31195 17.7345 4.75652 20.1465 3.59854L26.4001 9.85207C25.4032 11.9681 23.9444 14.2838 21.8135 16.4147Z" fill="white"></path></g></svg>