<svg _ngcontent-veenaworld-c103="" width="30" height="30" viewBox="0 0 30 30" fill="none" xmlns="http://www.w3.org/2000/svg"><g _ngcontent-veenaworld-c103="" clip-path="url(#clip0_242_2116)"><path _ngcontent-veenaworld-c103="" d="M15.0001 29.9854C1.68546 29.972 -5.0119 13.802 4.39359 4.37877C9.97685 -1.43963 20.0234 -1.44057 25.6066 4.379C35.012 13.8031 28.3139 29.9728 15.0001 29.9854ZM15.0001 1.27454C7.43987 1.27454 1.28919 7.42522 1.28919 14.9854C2.04235 33.1748 27.9605 33.1695 28.711 14.9853C28.711 7.42522 22.5603 1.27454 15.0001 1.27454Z" fill="white"></path><path _ngcontent-veenaworld-c103="" d="M20.4751 15.5027C20.168 15.5027 19.8701 15.3754 19.6577 15.1533L17.1657 12.5488C17.1521 12.5346 17.1392 12.5198 17.1271 12.5046C15.095 10.0323 18.035 7.0391 20.4803 8.59371C23.031 6.96821 25.8189 10.203 23.8038 12.5276C23.7153 12.6267 22.1076 14.2978 21.2926 15.1533C21.0802 15.3754 20.7822 15.5027 20.4751 15.5027ZM18.1144 11.6757L20.4752 14.1431C21.2423 13.3412 22.7007 11.8168 22.8424 11.6687C23.9595 10.3861 22.2234 8.60778 20.919 9.88811C20.6659 10.1285 20.2676 10.1237 20.0203 9.87744C18.8189 8.67229 16.9509 10.2802 18.1144 11.6757Z" fill="#FFD801"></path><path _ngcontent-veenaworld-c103="" d="M9.52984 15.5027C9.22281 15.5027 8.9248 15.3754 8.71234 15.1533C7.90304 14.3041 6.31632 12.6557 6.18173 12.5045C4.1497 10.0322 7.08976 7.03896 9.535 8.59357C12.0856 6.96812 14.8735 10.2028 12.8584 12.5275C12.77 12.6265 11.1623 14.2976 10.3472 15.1532C10.1349 15.3753 9.83687 15.5027 9.52984 15.5027ZM7.16904 11.6757C7.35086 11.8657 8.77433 13.3535 9.52978 14.143C10.2969 13.3411 11.7553 11.8168 11.897 11.6687C13.0141 10.3861 11.278 8.60775 9.97369 9.88808C9.72062 10.1284 9.32224 10.1237 9.07498 9.87742C7.87357 8.67226 6.00554 10.2801 7.16904 11.6757Z" fill="#FFD801"></path><path _ngcontent-veenaworld-c103="" d="M15 25C11.5201 25 8.39763 22.9575 7.04502 19.7964C6.91845 19.5006 7.0679 19.1632 7.37878 19.0429C7.68961 18.9224 8.04425 19.0646 8.17077 19.3604C9.33614 22.0838 12.0168 23.8436 15 23.8436C17.9833 23.8436 20.6639 22.0838 21.8293 19.3604C21.9558 19.0646 22.3105 18.9224 22.6212 19.0429C22.9321 19.1633 23.0815 19.5006 22.955 19.7964C21.6024 22.9575 18.4799 25 15 25Z" fill="white"></path></g></svg>